<svg xmlns:rdf="http://www.w3.org/1999/02/22-rdf-syntax-ns#" xmlns="http://www.w3.org/2000/svg" xml:space="preserve" height="40.52" viewBox="0 0 500.35641 40.523785" width="500.4" version="1.1" xmlns:cc="http://creativecommons.org/ns#" xmlns:dc="http://purl.org/dc/elements/1.1/"><g transform="matrix(1.25 0 0 -1.25 0 40.52)"><g transform="matrix(1 0 0 -1 0 32.42)"><path stroke-linejoin="round" d="m10.87 5.316-10.73 10.89 13.16-8.421-2.43-2.473z" stroke="#b69e7f" stroke-width=".2853" fill="#b69e7f"/></g><g transform="matrix(1 0 0 -1 0 32.42)"><path stroke-linejoin="round" d="m10.87 5.316 10.72 10.89-13.16-8.421 2.44-2.473z" stroke="#b69e7f" stroke-width=".2853" fill="#b69e7f"/></g><g transform="matrix(1 0 0 -1 0 32.42)"><path stroke-linejoin="round" d="m22.86 3.68-12.29 12.53 15.07-9.69-2.78-2.84z" stroke="#b69e7f" stroke-width=".3275" fill="#b69e7f"/></g><g transform="matrix(1 0 0 -1 0 32.42)"><path stroke-linejoin="round" d="m22.86 3.68 12.28 12.53-15.07-9.69 2.79-2.84z" stroke="#b69e7f" stroke-width=".3275" fill="#b69e7f"/></g><g transform="matrix(1 0 0 -1 0 32.42)"><path stroke-linejoin="round" d="m40.82.211-15.75 16l19.32-12.37-3.57-3.629z" stroke="#b69e7f" stroke-width=".4190" fill="#b69e7f"/></g><g transform="matrix(1 0 0 -1 0 32.42)"><path stroke-linejoin="round" d="m40.82.211 15.75 16l-19.33-12.37 3.58-3.629z" stroke="#b69e7f" stroke-width=".4190" fill="#b69e7f"/></g><g transform="matrix(1 0 0 -1 0 32.42)"><path stroke-linejoin="round" d="m52.47 12.85h13.12v-3.36h-16.31" stroke="#b69e7f" stroke-width="1.2" fill="none"/></g><g transform="matrix(1 0 0 -1 0 32.42)"><path d="m.141 16.21h46.5" stroke="#b69e7f" stroke-width=".4748" fill="none"/></g><g transform="matrix(1 0 0 -1 0 32.42)"><path stroke-linejoin="round" d="m10.87 27.1-10.73-10.89l13.16 8.422-2.43 2.469z" stroke="#b69e7f" stroke-width=".2853" fill="#b69e7f"/></g><g transform="matrix(1 0 0 -1 0 32.42)"><path stroke-linejoin="round" d="m10.87 27.1 10.72-10.89-13.16 8.42l2.433 2.469z" stroke="#b69e7f" stroke-width=".2853" fill="#b69e7f"/></g><g transform="matrix(1 0 0 -1 0 32.42)"><path stroke-linejoin="round" d="m22.86 28.74-12.29-12.53 15.07 9.69-2.78 2.84z" stroke="#b69e7f" stroke-width=".3275" fill="#b69e7f"/></g><g transform="matrix(1 0 0 -1 0 32.42)"><path stroke-linejoin="round" d="m22.86 28.74 12.28-12.53-15.07 9.69 2.79 2.84z" stroke="#b69e7f" stroke-width=".3275" fill="#b69e7f"/></g><g transform="matrix(1 0 0 -1 0 32.42)"><path stroke-linejoin="round" d="m40.82 32.21-15.75-16 19.32 12.37-3.575 3.633z" stroke="#b69e7f" stroke-width=".4190" fill="#b69e7f"/></g><g transform="matrix(1 0 0 -1 0 32.42)"><path stroke-linejoin="round" d="m40.82 32.21 15.75-16-19.32 12.37 3.574 3.633z" stroke="#b69e7f" stroke-width=".4190" fill="#b69e7f"/></g><g transform="matrix(1 0 0 -1 0 32.42)"><path stroke-linejoin="round" d="m.141 16.21h46.5" stroke="#b69e7f" stroke-width="1.2" fill="none"/></g><g transform="matrix(1 0 0 -1 0 32.42)"><path stroke-linejoin="round" d="m65.59 9.488h288.1" stroke="#b69e7f" stroke-width="1.2" fill="none"/></g><g transform="matrix(1 0 0 -1 0 32.42)"><path stroke-linejoin="round" d="m52.47 19.57h13.12v3.36" stroke="#b69e7f" stroke-width="1.2" fill="none"/></g><g transform="matrix(1 0 0 -1 0 32.42)"><path stroke-linejoin="round" d="m46.64 26.29v-20.16" stroke="#b69e7f" stroke-width="1.2" fill="none"/></g><g transform="matrix(1 0 0 -1 0 32.42)"><path stroke-linejoin="round" d="m42.3 6.129h314.9" stroke="#b69e7f" stroke-width="1.2" fill="none"/></g><g transform="matrix(1 0 0 -1 0 32.42)"><path stroke-linejoin="round" d="m389.4 5.316 10.72 10.9-13.15-8.422 2.43-2.473z" stroke="#b69e7f" stroke-width=".2853" fill="#b69e7f"/></g><g transform="matrix(1 0 0 -1 0 32.42)"><path stroke-linejoin="round" d="m389.4 5.316-10.7 10.89 13.2-8.421-2.5-2.473z" stroke="#b69e7f" stroke-width=".2853" fill="#b69e7f"/></g><g transform="matrix(1 0 0 -1 0 32.42)"><path stroke-linejoin="round" d="m377.4 3.68 12.3 12.53-15.1-9.69 2.8-2.84z" stroke="#b69e7f" stroke-width=".3275" fill="#b69e7f"/></g><g transform="matrix(1 0 0 -1 0 32.42)"><path stroke-linejoin="round" d="m377.4 3.68-12.3 12.53 15.1-9.69-2.8-2.84z" stroke="#b69e7f" stroke-width=".3275" fill="#b69e7f"/></g><g transform="matrix(1 0 0 -1 0 32.42)"><path stroke-linejoin="round" d="m359.5.211 15.75 16-19.32-12.37 3.574-3.629z" stroke="#b69e7f" stroke-width=".4190" fill="#b69e7f"/></g><g transform="matrix(1 0 0 -1 0 32.42)"><path stroke-linejoin="round" d="m359.5.211-15.75 16 19.32-12.37-3.574-3.629z" stroke="#b69e7f" stroke-width=".4190" fill="#b69e7f"/></g><g transform="matrix(1 0 0 -1 0 32.42)"><path stroke-linejoin="round" d="m347.8 12.85h-13.12v-3.36" stroke="#b69e7f" stroke-width="1.2" fill="none"/></g><g transform="matrix(1 0 0 -1 0 32.42)"><path d="m400.1 16.21h-46.5" stroke="#b69e7f" stroke-width=".4748" fill="none"/></g><g transform="matrix(1 0 0 -1 0 32.42)"><path stroke-linejoin="round" d="m389.4 27.1 10.72-10.89-13.15 8.422 2.43 2.469z" stroke="#b69e7f" stroke-width=".2853" fill="#b69e7f"/></g><g transform="matrix(1 0 0 -1 0 32.42)"><path stroke-linejoin="round" d="m389.4 27.1-10.72-10.89 13.16 8.422-2.434 2.469z" stroke="#b69e7f" stroke-width=".2853" fill="#b69e7f"/></g><g transform="matrix(1 0 0 -1 0 32.42)"><path stroke-linejoin="round" d="m377.4 28.74 12.28-12.53-15.07 9.687 2.785 2.844z" stroke="#b69e7f" stroke-width=".3275" fill="#b69e7f"/></g><g transform="matrix(1 0 0 -1 0 32.42)"><path stroke-linejoin="round" d="m377.4 28.74-12.28-12.53 15.07 9.687-2.785 2.844z" stroke="#b69e7f" stroke-width=".3275" fill="#b69e7f"/></g><g transform="matrix(1 0 0 -1 0 32.42)"><path stroke-linejoin="round" d="m359.5 32.21 15.75-16-19.32 12.37 3.574 3.633z" stroke="#b69e7f" stroke-width=".4190" fill="#b69e7f"/></g><g transform="matrix(1 0 0 -1 0 32.42)"><path stroke-linejoin="round" d="m359.5 32.21-15.75-16 19.32 12.37-3.574 3.633z" stroke="#b69e7f" stroke-width=".4190" fill="#b69e7f"/></g><g transform="matrix(1 0 0 -1 0 32.42)"><path stroke-linejoin="round" d="m400.1 16.21h-46.5" stroke="#b69e7f" stroke-width="1.2" fill="none"/></g><g transform="matrix(1 0 0 -1 0 32.42)"><path stroke-linejoin="round" d="m347.8 19.57h-13.12v3.36" stroke="#b69e7f" stroke-width="1.2" fill="none"/></g><g transform="matrix(1 0 0 -1 0 32.42)"><path stroke-linejoin="round" d="m353.6 26.29v-20.16" stroke="#b69e7f" stroke-width="1.2" fill="none"/></g><g transform="matrix(1 0 0 -1 0 32.42)"><path stroke-linejoin="round" d="m41.8 26.29h313.6" stroke="#b69e7f" stroke-width="1.2" fill="none"/></g><g transform="matrix(1 0 0 -1 0 32.42)"><path stroke-linejoin="round" d="m46.64 22.93h307" stroke="#b69e7f" stroke-width="1.2" fill="none"/></g></g></svg>
