<?xml version="1.0" encoding="UTF-8" standalone="no"?>
<!-- Created with Inkscape (http://www.inkscape.org/) -->

<svg
   xmlns:dc="http://purl.org/dc/elements/1.1/"
   xmlns:cc="http://creativecommons.org/ns#"
   xmlns:rdf="http://www.w3.org/1999/02/22-rdf-syntax-ns#"
   xmlns:svg="http://www.w3.org/2000/svg"
   xmlns="http://www.w3.org/2000/svg"
   xmlns:sodipodi="http://sodipodi.sourceforge.net/DTD/sodipodi-0.dtd"
   xmlns:inkscape="http://www.inkscape.org/namespaces/inkscape"
   width="90.920288mm"
   height="84.285515mm"
   viewBox="0 0 322.1585 298.64946"
   id="svg2"
   version="1.1"
   inkscape:version="0.91 r13725"
   sodipodi:docname="tanuki_ai_mascot.svg"
   inkscape:export-filename="/home/cyb/Job/upwork/Owen Miller/tanuki_vector3"
   inkscape:export-xdpi="90"
   inkscape:export-ydpi="90">
  <defs
     id="defs4">
    <marker
       inkscape:stockid="Arrow1Send"
       orient="auto"
       refY="0"
       refX="0"
       id="Arrow1Send"
       style="overflow:visible"
       inkscape:isstock="true">
      <path
         id="path6369"
         d="M 0,0 5,-5 -12.5,0 5,5 0,0 Z"
         style="fill:#916f6f;fill-opacity:1;fill-rule:evenodd;stroke:url(#Strips1_1);stroke-width:1pt;stroke-opacity:1"
         transform="matrix(-0.2,0,0,-0.2,-1.2,0)"
         inkscape:connector-curvature="0" />
    </marker>
    <marker
       inkscape:stockid="Arrow1Sstart"
       orient="auto"
       refY="0"
       refX="0"
       id="Arrow1Sstart"
       style="overflow:visible"
       inkscape:isstock="true">
      <path
         id="path6366"
         d="M 0,0 5,-5 -12.5,0 5,5 0,0 Z"
         style="fill:#916f6f;fill-opacity:1;fill-rule:evenodd;stroke:url(#Strips1_1);stroke-width:1pt;stroke-opacity:1"
         transform="matrix(0.2,0,0,0.2,1.2,0)"
         inkscape:connector-curvature="0" />
    </marker>
    <marker
       inkscape:stockid="Arrow1Mend"
       orient="auto"
       refY="0"
       refX="0"
       id="Arrow1Mend"
       style="overflow:visible"
       inkscape:isstock="true">
      <path
         id="path6363"
         d="M 0,0 5,-5 -12.5,0 5,5 0,0 Z"
         style="fill:#916f6f;fill-opacity:1;fill-rule:evenodd;stroke:url(#Strips1_1);stroke-width:1pt;stroke-opacity:1"
         transform="matrix(-0.4,0,0,-0.4,-4,0)"
         inkscape:connector-curvature="0" />
    </marker>
    <marker
       inkscape:stockid="Arrow1Mstart"
       orient="auto"
       refY="0"
       refX="0"
       id="Arrow1Mstart"
       style="overflow:visible"
       inkscape:isstock="true">
      <path
         id="path6360"
         d="M 0,0 5,-5 -12.5,0 5,5 0,0 Z"
         style="fill:#916f6f;fill-opacity:1;fill-rule:evenodd;stroke:url(#Strips1_1);stroke-width:1pt;stroke-opacity:1"
         transform="matrix(0.4,0,0,0.4,4,0)"
         inkscape:connector-curvature="0" />
    </marker>
    <marker
       inkscape:stockid="Arrow1Lend"
       orient="auto"
       refY="0"
       refX="0"
       id="Arrow1Lend"
       style="overflow:visible"
       inkscape:isstock="true">
      <path
         id="path6357"
         d="M 0,0 5,-5 -12.5,0 5,5 0,0 Z"
         style="fill:#916f6f;fill-opacity:1;fill-rule:evenodd;stroke:url(#Strips1_1);stroke-width:1pt;stroke-opacity:1"
         transform="matrix(-0.8,0,0,-0.8,-10,0)"
         inkscape:connector-curvature="0" />
    </marker>
    <marker
       inkscape:stockid="Arrow1Lstart"
       orient="auto"
       refY="0"
       refX="0"
       id="Arrow1Lstart"
       style="overflow:visible"
       inkscape:isstock="true">
      <path
         id="path6354"
         d="M 0,0 5,-5 -12.5,0 5,5 0,0 Z"
         style="fill:#916f6f;fill-opacity:1;fill-rule:evenodd;stroke:url(#Strips1_1);stroke-width:1pt;stroke-opacity:1"
         transform="matrix(0.8,0,0,0.8,10,0)"
         inkscape:connector-curvature="0" />
    </marker>
    <pattern
       inkscape:stockid="Stripes 1:1"
       id="Strips1_1"
       patternTransform="translate(0,0) scale(10,10)"
       height="1"
       width="2"
       patternUnits="userSpaceOnUse"
       inkscape:collect="always">
      <rect
         id="rect5635"
         height="2"
         width="1"
         y="-0.5"
         x="0"
         style="fill:black;stroke:none" />
    </pattern>
  </defs>
  <sodipodi:namedview
     id="base"
     pagecolor="#ffffff"
     bordercolor="#666666"
     borderopacity="1.0"
     inkscape:pageopacity="0.0"
     inkscape:pageshadow="2"
     inkscape:zoom="0.69706502"
     inkscape:cx="288.70741"
     inkscape:cy="109.15394"
     inkscape:document-units="px"
     inkscape:current-layer="layer1"
     showgrid="false"
     inkscape:window-width="1301"
     inkscape:window-height="744"
     inkscape:window-x="65"
     inkscape:window-y="336"
     inkscape:window-maximized="1"
     fit-margin-top="0"
     fit-margin-left="0"
     fit-margin-right="0"
     fit-margin-bottom="0" />
  <metadata
     id="metadata7">
    <rdf:RDF>
      <cc:Work
         rdf:about="">
        <dc:format>image/svg+xml</dc:format>
        <dc:type
           rdf:resource="http://purl.org/dc/dcmitype/StillImage" />
        <dc:title></dc:title>
      </cc:Work>
    </rdf:RDF>
  </metadata>
  <g
     inkscape:label="Layer 1"
     inkscape:groupmode="layer"
     id="layer1"
     transform="translate(-359.67371,-525.32226)">
    <g
       id="g5094"
       transform="matrix(0.986104,-0.1661292,0.1661292,0.986104,-86.500578,52.821107)"
       inkscape:export-filename="/home/cyb/Job/upwork/Owen Miller/ready/tanuki-logo-5_beta.png"
       inkscape:export-xdpi="90"
       inkscape:export-ydpi="90">
      <path
         inkscape:export-ydpi="90"
         inkscape:export-xdpi="90"
         sodipodi:nodetypes="cccccccccccccccc"
         style="fill:#894211;fill-opacity:1;fill-rule:evenodd;stroke:none;stroke-width:1px;stroke-linecap:butt;stroke-linejoin:miter;stroke-opacity:1"
         d="m 410.74963,690.4686 c -0.94994,-0.48154 -1.30815,-0.96538 -2.15193,-0.48601 -0.67436,0.38745 -2.74823,0.0672 -3.00063,0.81118 -0.31036,0.81279 -0.0696,2.31076 -0.63512,2.97878 -0.56698,0.89937 0.29167,1.8249 -0.10804,2.81685 -0.53221,1.02264 -1.62608,0.78733 -2.16741,1.80936 -0.30747,0.65239 0.44763,2.47882 -0.0419,3.02484 1.03064,1.066 2.13358,1.16072 2.70295,1.44612 0.46612,-0.60759 2.10796,-0.7618 2.60557,-1.37475 0.314,-0.67364 0.63091,-2.18347 0.88991,-2.88798 0.30595,-0.70233 1.83607,-0.37293 2.42465,-0.84226 0.80291,-0.35767 0.81962,-0.24904 1.35992,-0.86487 0.38259,-0.76595 0.59969,-1.66352 0.55904,-2.53086 -0.18123,-1.1529 -0.31487,-1.95132 -1.00708,-2.94079 -0.3415,-0.46561 -0.92335,-0.6219 -1.42985,-0.95961 z"
         id="path4237"
         inkscape:connector-curvature="0" />
      <path
         id="path6632"
         transform="translate(0,308.26772)"
         d="m 408.38281,380.41797 c -1.89453,-0.0205 -3.83003,1.09222 -4.51953,2.90039 -0.53583,1.30205 -0.48881,2.92554 0.46484,4.02734 -0.47807,0.22977 -0.82544,0.43077 -1.15234,0.78516 -0.43945,0.34408 -0.82843,0.80769 -1.0664,1.25195 -0.91679,1.35628 -0.96086,3.28748 0.0742,4.59375 0.11885,0.15487 0.26472,0.28997 0.40625,0.42774 -0.005,0.003 -0.0107,0.003 -0.0156,0.006 0.93748,0.57884 1.9585,1.11211 3.39453,0.88867 1.45228,-0.28953 2.79371,-1.22596 3.33203,-2.63672 0.33613,-0.56018 0.16638,-1.46533 0.37305,-1.89649 1.41106,-0.14584 2.85122,-0.87309 3.57031,-2.13085 0.53995,-1.21627 0.44379,-2.58632 0.45117,-3.88477 -0.0574,-1.46556 -0.79898,-3.02469 -2.2207,-3.59766 -0.71659,-0.32197 -1.48216,-0.57309 -2.26172,-0.69531 -0.27583,-0.0255 -0.55311,-0.0467 -0.83008,-0.0391 z m 0.12891,1.97851 c 0.97946,-0.0173 1.87772,0.44222 2.71484,0.9004 0.57207,0.68695 0.62524,1.66278 0.59961,2.51953 -0.18913,1.22492 -0.9843,2.57278 -2.33203,2.69921 -0.57426,0.0299 -1.09768,-0.11032 -1.63867,-0.25 -0.57796,-0.22388 -1.15874,-0.56552 -1.54883,-1.05468 -0.28677,-0.59897 -0.69185,-1.18984 -0.74805,-1.86328 -0.007,-0.91789 0.19255,-1.99651 0.97657,-2.57227 0.58724,-0.35722 1.30772,-0.38519 1.97656,-0.37891 z m -3.28516,6.40821 c 0.75415,0.0384 2.00214,0.8736 2.25,1.63476 0.39959,1.00891 -0.4325,2.69817 -1.46875,2.89063 -0.66522,0.22792 -2.11654,-0.11212 -2.52734,-0.75586 -0.50783,-0.79998 -0.41279,-1.88634 0.13086,-2.50391 0.22697,-0.25883 0.69819,-1.31598 1.61523,-1.26562 z"
         style="color:#000000;font-style:normal;font-variant:normal;font-weight:normal;font-stretch:normal;font-size:medium;line-height:normal;font-family:sans-serif;text-indent:0;text-align:start;text-decoration:none;text-decoration-line:none;text-decoration-style:solid;text-decoration-color:#000000;letter-spacing:normal;word-spacing:normal;text-transform:none;direction:ltr;block-progression:tb;writing-mode:lr-tb;baseline-shift:baseline;text-anchor:start;white-space:normal;clip-rule:nonzero;display:inline;overflow:visible;visibility:visible;opacity:1;isolation:auto;mix-blend-mode:normal;color-interpolation:sRGB;color-interpolation-filters:linearRGB;solid-color:#000000;solid-opacity:1;fill:#1a1a1a;fill-opacity:1;fill-rule:evenodd;stroke:none;stroke-width:2.3599999;stroke-linecap:butt;stroke-linejoin:miter;stroke-miterlimit:4;stroke-dasharray:none;stroke-dashoffset:0;stroke-opacity:1;color-rendering:auto;image-rendering:auto;shape-rendering:auto;text-rendering:auto;enable-background:accumulate"
         inkscape:connector-curvature="0"
         sodipodi:nodetypes="cccccccccccccccccccccccccccccccc" />
    </g>
    <g
       id="g5036"
       inkscape:transform-center-x="49.63663"
       inkscape:transform-center-y="6.8755523"
       transform="matrix(0.99989172,-0.01471497,0.01471497,0.99989172,-11.086129,6.9362843)"
       inkscape:export-filename="/home/cyb/Job/upwork/Owen Miller/ready/tanuki-logo-5_beta.png"
       inkscape:export-xdpi="90"
       inkscape:export-ydpi="90">
      <path
         inkscape:export-ydpi="90"
         inkscape:export-xdpi="90"
         sodipodi:nodetypes="csssc"
         style="fill:#9b4a12;fill-opacity:1;fill-rule:evenodd;stroke:#000000;stroke-width:3.29999995;stroke-linecap:round;stroke-linejoin:miter;stroke-miterlimit:4;stroke-dasharray:none;stroke-opacity:1"
         d="m 470.95575,761.93531 c -7.53158,10.93872 -55.14732,34.88139 -92.33986,18.48457 -33.37104,-14.71207 -11.35299,-41.74218 5.56158,-41.09855 10.46711,0.39829 26.45905,14.76946 47.64102,16.05352 21.18196,1.28406 28.52819,-1.50453 33.54924,-8.67746"
         id="path6716"
         inkscape:connector-curvature="0" />
      <path
         inkscape:export-ydpi="90"
         inkscape:export-xdpi="90"
         sodipodi:nodetypes="ccsccsc"
         inkscape:connector-curvature="0"
         id="path6718"
         d="m 408.70696,747.88668 -7.20551,-1.46131 c 1.5573,2.97918 3.92375,11.64145 2.36402,18.07779 -1.55972,6.43634 -6.71147,14.2265 -16.17832,17.9806 l 5.89433,2.93169 c 11.33465,-4.49478 15.57461,-8.87325 17.55652,-17.05175 1.98191,-8.17851 0.1361,-15.56598 -2.43104,-20.47702 z"
         style="color:#000000;font-style:normal;font-variant:normal;font-weight:normal;font-stretch:normal;font-size:medium;line-height:normal;font-family:sans-serif;text-indent:0;text-align:start;text-decoration:none;text-decoration-line:none;text-decoration-style:solid;text-decoration-color:#000000;letter-spacing:normal;word-spacing:normal;text-transform:none;direction:ltr;block-progression:tb;writing-mode:lr-tb;baseline-shift:baseline;text-anchor:start;white-space:normal;clip-rule:nonzero;display:inline;overflow:visible;visibility:visible;opacity:1;isolation:auto;mix-blend-mode:normal;color-interpolation:sRGB;color-interpolation-filters:linearRGB;solid-color:#000000;solid-opacity:1;fill:#000000;fill-opacity:1;fill-rule:evenodd;stroke:none;stroke-width:6.69999981;stroke-linecap:butt;stroke-linejoin:miter;stroke-miterlimit:4;stroke-dasharray:none;stroke-dashoffset:0;stroke-opacity:1;color-rendering:auto;image-rendering:auto;shape-rendering:auto;text-rendering:auto;enable-background:accumulate" />
      <path
         inkscape:export-ydpi="90"
         inkscape:export-xdpi="90"
         sodipodi:nodetypes="ccsccsc"
         inkscape:connector-curvature="0"
         id="path6720"
         d="m 428.02984,754.24764 -6.43356,-0.88977 c 2.11688,2.15918 5.11188,7.73878 5.45117,13.78124 0.33929,6.04247 -1.99712,11.6747 -9.30603,17.48154 l 7.21118,-1.22074 c 8.62854,-4.52074 10.21674,-10.82054 9.92551,-16.7626 -0.29033,-5.92349 -1.93729,-9.43469 -6.84827,-12.38967 z"
         style="color:#000000;font-style:normal;font-variant:normal;font-weight:normal;font-stretch:normal;font-size:medium;line-height:normal;font-family:sans-serif;text-indent:0;text-align:start;text-decoration:none;text-decoration-line:none;text-decoration-style:solid;text-decoration-color:#000000;letter-spacing:normal;word-spacing:normal;text-transform:none;direction:ltr;block-progression:tb;writing-mode:lr-tb;baseline-shift:baseline;text-anchor:start;white-space:normal;clip-rule:nonzero;display:inline;overflow:visible;visibility:visible;opacity:1;isolation:auto;mix-blend-mode:normal;color-interpolation:sRGB;color-interpolation-filters:linearRGB;solid-color:#000000;solid-opacity:1;fill:#000000;fill-opacity:1;fill-rule:evenodd;stroke:none;stroke-width:6.69999981;stroke-linecap:butt;stroke-linejoin:miter;stroke-miterlimit:4;stroke-dasharray:none;stroke-dashoffset:0;stroke-opacity:1;color-rendering:auto;image-rendering:auto;shape-rendering:auto;text-rendering:auto;enable-background:accumulate" />
      <path
         inkscape:export-ydpi="90"
         inkscape:export-xdpi="90"
         sodipodi:nodetypes="ccsccsc"
         inkscape:connector-curvature="0"
         id="path6722"
         d="m 447.06888,755.42046 -5.76154,1.07354 c 1.29536,0.95905 3.9941,4.99768 4.77313,8.58097 0.77903,3.58329 -0.006,8.55013 -3.9136,12.81714 l 6.3362,-1.05385 c 5.26448,-5.74887 4.82411,-10.57813 4.63147,-13.31197 -0.24411,-3.4644 -3.01832,-5.84967 -6.06566,-8.10583 z"
         style="color:#000000;font-style:normal;font-variant:normal;font-weight:normal;font-stretch:normal;font-size:medium;line-height:normal;font-family:sans-serif;text-indent:0;text-align:start;text-decoration:none;text-decoration-line:none;text-decoration-style:solid;text-decoration-color:#000000;letter-spacing:normal;word-spacing:normal;text-transform:none;direction:ltr;block-progression:tb;writing-mode:lr-tb;baseline-shift:baseline;text-anchor:start;white-space:normal;clip-rule:nonzero;display:inline;overflow:visible;visibility:visible;opacity:1;isolation:auto;mix-blend-mode:normal;color-interpolation:sRGB;color-interpolation-filters:linearRGB;solid-color:#000000;solid-opacity:1;fill:#000000;fill-opacity:1;fill-rule:evenodd;stroke:none;stroke-width:6.69999981;stroke-linecap:butt;stroke-linejoin:miter;stroke-miterlimit:4;stroke-dasharray:none;stroke-dashoffset:0;stroke-opacity:1;color-rendering:auto;image-rendering:auto;shape-rendering:auto;text-rendering:auto;enable-background:accumulate" />
    </g>
    <path
       style="color:#000000;clip-rule:nonzero;display:inline;overflow:visible;visibility:visible;opacity:1;isolation:auto;mix-blend-mode:normal;color-interpolation:sRGB;color-interpolation-filters:linearRGB;solid-color:#000000;solid-opacity:1;fill:#facf89;fill-opacity:1;fill-rule:nonzero;stroke:none;stroke-width:0.30000001;stroke-linecap:round;stroke-linejoin:miter;stroke-miterlimit:4;stroke-dasharray:none;stroke-dashoffset:0;stroke-opacity:1;color-rendering:auto;image-rendering:auto;shape-rendering:auto;text-rendering:auto;enable-background:accumulate"
       d="m 679.45855,632.55363 c 0.62139,55.03829 -51.48398,81.36202 -94.91405,87.7856 -49.78961,-24.30157 -126.42952,-23.50558 -127.94919,-91.01981 -1.18177,-52.50207 46.20164,-104.71439 106.46481,-101.87748 63.79511,3.0032 115.83943,55.60218 116.39843,105.11169 z"
       id="path4165"
       inkscape:connector-curvature="0"
       sodipodi:nodetypes="scsss"
       inkscape:export-xdpi="90"
       inkscape:export-ydpi="90"
       inkscape:export-filename="/home/cyb/Job/upwork/Owen Miller/ready/tanuki-logo-5_beta.png" />
    <path
       style="color:#000000;font-style:normal;font-variant:normal;font-weight:normal;font-stretch:normal;font-size:medium;line-height:normal;font-family:sans-serif;text-indent:0;text-align:start;text-decoration:none;text-decoration-line:none;text-decoration-style:solid;text-decoration-color:#000000;letter-spacing:normal;word-spacing:normal;text-transform:none;direction:ltr;block-progression:tb;writing-mode:lr-tb;baseline-shift:baseline;text-anchor:start;white-space:normal;clip-rule:nonzero;display:inline;overflow:visible;visibility:visible;opacity:1;isolation:auto;mix-blend-mode:normal;color-interpolation:sRGB;color-interpolation-filters:linearRGB;solid-color:#000000;solid-opacity:1;fill:#1a1a1a;fill-opacity:1;fill-rule:nonzero;stroke:none;stroke-width:3.30000019;stroke-linecap:round;stroke-linejoin:miter;stroke-miterlimit:4;stroke-dasharray:none;stroke-dashoffset:0;stroke-opacity:1;color-rendering:auto;image-rendering:auto;shape-rendering:auto;text-rendering:auto;enable-background:accumulate"
       d="m 585.50243,721.61273 c 21.94327,-3.24555 46.06519,-11.48951 64.74805,-25.99024 18.68286,-14.50072 31.89278,-35.4026 31.57617,-63.44531 -0.5719,-50.65241 -53.31376,-103.69841 -117.9707,-106.74219 l 0,-2e-5 c -61.25364,-2.88353 -109.39802,50.04383 -108.19336,103.5625 0.38694,17.19057 7.75798,31.84454 16.16555,41.92055 4.20378,5.03801 9.56521,9.52404 15.11025,13.27255 2.15561,0.1902 3.79995,-1.97109 3.79995,-1.97109 -5.33519,-3.60578 -13.11946,-10.4467 -17.09233,-15.20797 -7.94574,-9.52254 -14.3117,-21.5217 -14.68459,-38.08825 -1.15889,-51.48547 45.46557,-102.98169 104.73828,-100.19141 62.93327,2.96263 114.28007,55.11582 114.82617,103.48242 0.30478,26.99558 -12.22684,46.77418 -30.29883,60.80078 -17.95255,13.9339 -41.40062,22.02402 -62.77344,25.2461 -3.30585,0.86737 0.0488,3.35158 0.0488,3.35158 z"
       id="path6646"
       inkscape:connector-curvature="0"
       sodipodi:nodetypes="cssccssccsssssccc"
       inkscape:export-xdpi="90"
       inkscape:export-ydpi="90"
       inkscape:export-filename="/home/cyb/Job/upwork/Owen Miller/ready/tanuki-logo-5_beta.png" />
    <path
       style="fill:#b1652b;fill-opacity:1;fill-rule:evenodd;stroke:none;stroke-width:1px;stroke-linecap:butt;stroke-linejoin:miter;stroke-opacity:1"
       d="m 599.10443,604.37161 c -0.43678,-13.9976 10.02675,-23.31024 20.43922,-22.84338 9.88113,-1.51549 19.11892,9.70529 19.19807,18.82 0.85951,9.53904 -3.45803,20.46856 -11.9797,29.25715 -5.3629,-2.53433 -6.20714,-9.98599 -12.96256,-12.63067 -4.01538,-4.24351 -10.49122,-8.5565 -14.69503,-12.6031 z"
       id="path4190"
       inkscape:connector-curvature="0"
       sodipodi:nodetypes="cccccc"
       inkscape:export-xdpi="90"
       inkscape:export-ydpi="90"
       inkscape:export-filename="/home/cyb/Job/upwork/Owen Miller/ready/tanuki-logo-5_beta.png" />
    <path
       style="fill:#b1652b;fill-opacity:1;fill-rule:evenodd;stroke:none;stroke-width:1px;stroke-linecap:butt;stroke-linejoin:miter;stroke-opacity:1"
       d="m 540.32169,588.0503 c -1.25227,-3.73431 -0.1749,-7.66967 -0.27758,-11.4948 1.45567,-5.06522 4.27749,-11.78622 8.85584,-14.41246 3.13008,-2.4801 6.7929,-3.74071 11.11897,-3.72648 5.57414,-0.18 11.69664,0.11614 16.25701,3.72927 3.32193,3.20008 6.74537,6.78128 7.55788,11.5157 0.76821,3.20469 -0.14836,6.42375 -1.22473,9.43344 -0.777,2.09458 -1.1767,4.30641 -1.84247,6.42413 -1.12299,2.64396 -2.14042,5.94591 -4.988,5.00573 -3.33354,-0.25971 -8.08773,-1.59433 -11.13941,-2.8315 -2.44345,-0.97557 -5.34054,-0.48559 -7.94101,-0.56696 -4.847,-0.45607 -11.31342,-0.92514 -16.12636,0.0867 -0.6413,-0.02 0.11111,-2.6039 -0.25014,-3.16288 z"
       id="path4202"
       inkscape:connector-curvature="0"
       sodipodi:nodetypes="cccccccccccccc"
       inkscape:export-xdpi="90"
       inkscape:export-ydpi="90"
       inkscape:export-filename="/home/cyb/Job/upwork/Owen Miller/ready/tanuki-logo-5_beta.png" />
    <path
       sodipodi:nodetypes="cccccccccccccccccccccccccccccccccccccccccccccccccccccccccccccccccccccc"
       inkscape:connector-curvature="0"
       id="path4209"
       d="m 530.08687,593.82226 c 3.1964,-1.34575 1.6734,-1.5196 3.80249,-1.26143 1.31881,0.11944 3.4257,-0.57179 4.39573,-1.10968 0.91845,-1.00311 2.15753,0.43161 3.89348,-0.42791 2.5188,-0.43599 4.1743,0.72505 6.61757,-0.25665 3.80392,-0.0893 7.45716,-0.48348 9.92274,0.75904 2.45922,0.53778 4.94979,0.11664 7.60385,0.7467 2.42791,0.66306 4.29866,0.3684 6.44443,1.10537 3.40221,1.09521 6.51309,2.66538 9.96447,3.43039 2.07084,0.65803 3.36942,1.31147 5.22727,2.12358 1.51167,0.75758 3.44453,2.02964 5.06392,2.94033 1.05635,0.64361 2.70563,1.85741 3.92045,2.28693 1.56219,0.95939 3.88829,2.05553 5.79101,3.16758 2.32836,0.75941 3.48056,3.5418 5.57975,4.52231 2.65705,2.30831 4.64745,2.69767 6.90618,6.0796 1.22454,1.29001 3.58584,4.97917 4.58001,5.55033 1.36691,1.96572 3.95497,1.34633 3.88488,4.02972 0.6241,1.17203 1.71457,2.42173 2.66154,3.27686 0.53399,1.5924 1.67027,3.00418 2.45028,4.57385 1.47561,1.46385 2.03354,3.27146 3.59375,4.90057 0.77711,0.92264 1.11848,2.08544 1.79687,3.59374 0.44573,1.97264 0.86768,3.96865 1.47017,5.88068 0.62955,1.79389 1.04689,3.69967 1.79688,5.39062 0.86798,2.36275 1.73135,6.25075 0.71729,8.8112 -0.51761,1.78921 -1.17026,4.00898 -1.30682,6.01826 -0.9034,2.38943 -2.47872,3.44559 -2.67752,6.24296 -0.63459,0.96375 -2.39953,2.04096 -2.49202,3.65762 -0.68127,0.92134 -2.04091,1.28128 -2.73524,1.733 -0.64223,0.96048 -1.2869,1.2478 -2.28693,2.28693 -1.03882,0.62507 -1.82581,1.4439 -2.94034,1.96022 -1.53653,0.30342 -2.15408,1.77722 -2.77699,3.10369 -1.18745,1.99321 -1.54766,4.96015 -2.28693,7.35084 -0.34881,1.12269 -1.2358,2.60344 -1.75035,3.59307 -1.19098,0.84773 -1.69637,1.69243 -3.15021,3.10437 -1.44949,1.08272 -3.75587,2.34924 -5.22727,2.94034 -2.17642,0.93254 -4.55773,2.45088 -6.86078,3.43039 -1.8412,1.05973 -3.87323,1.80968 -6.20738,1.79688 -1.81745,0.4365 -4.26208,0.94396 -6.04403,1.47016 -5.20014,0.691 -10.82138,-0.0131 -16.00851,0.98012 -2.51679,0.36873 -5.39163,0.0711 -7.35084,-0.98012 -1.73943,-0.80858 -4.43037,-1.1087 -6.69744,-1.79687 -1.68806,-0.88419 -3.20543,-1.5992 -4.57385,-2.45028 -2.79233,-1.32239 -6.22589,-1.15321 -9.14772,-2.28693 -1.42085,-0.58057 -3.1452,-2.16652 -4.73721,-2.61363 -1.78415,-0.78328 -3.62958,-2.11752 -5.22727,-3.10369 -2.1603,-1.03566 -4.71277,-1.41672 -6.86079,-2.77699 -0.82716,-0.33203 -2.15517,-1.17336 -2.94034,-1.63352 -2.0535,-1.34111 -4.29668,-3.60833 -6.20737,-5.06391 -1.4995,-1.41722 -2.28748,-2.47101 -4.24716,-3.4304 -3.03338,-2.05944 -6.82333,-3.76175 -8.1676,-6.86079 -1.49667,-1.92794 -2.56032,-4.11699 -4.08381,-6.04402 -1.02321,-2.8175 -1.67975,-5.71537 -1.96022,-8.82102 -0.55122,-1.94031 -1.41024,-3.48857 -2.61363,-4.73721 -0.92076,-1.31722 -1.42109,-2.31406 -1.74896,-4.42647 -0.84068,-1.84183 -0.79039,-3.37887 -1.58561,-4.8109 -0.66589,-2.29185 -0.598,-4.23895 -1.1373,-6.69744 -0.83757,-1.59638 -1.09137,-3.17902 -0.98011,-5.39062 -0.35135,-2.93404 -0.19969,-5.67204 0.4004,-8.53605 0.69751,-2.89416 0.54529,-3.59063 1.3236,-6.05916 1.08581,-2.07248 1.71735,-5.12631 2.85966,-6.75964 0.29006,-1.72701 1.63491,-2.61254 2.51624,-4.33563 0.53285,-0.46964 2.22631,-3.18077 2.7368,-3.88606 0.82385,-0.38682 1.21444,-2.42559 2.31271,-3.00422 1.27012,-0.69371 3.51025,-2.63941 3.51025,-2.63941 0.82035,-1.15742 2.33883,-1.40599 3.17584,-2.43312 1.09948,-0.47516 4.00879,-2.34599 5.03968,-3.12085 1.72469,-0.97664 2.10509,-1.47912 3.89831,-2.52398 2.08824,-0.85857 3.83747,-0.97812 5.2113,-1.96385 1.12399,-0.42838 1.31095,0.86517 2.33484,-1.04401 z"
       style="fill:#cd7e39;fill-opacity:1;fill-rule:evenodd;stroke:none;stroke-width:1px;stroke-linecap:butt;stroke-linejoin:miter;stroke-opacity:1"
       inkscape:export-xdpi="90"
       inkscape:export-ydpi="90"
       inkscape:export-filename="/home/cyb/Job/upwork/Owen Miller/ready/tanuki-logo-5_beta.png" />
    <path
       sodipodi:nodetypes="ccccccccccccccccccccccccccccccccccccccccccccccccccccccccccccccccccccc"
       inkscape:connector-curvature="0"
       id="path4212"
       d="m 544.93496,597.02891 c 1.91712,0.17846 1.07435,0.38204 2.35529,0.27096 1.74167,0.37466 4.36855,-0.70658 5.698,0.56553 1.92949,0.68757 3.49192,-0.29251 5.12254,0.81206 0.60798,1.23604 2.4333,0.15463 3.5415,0.84996 1.82701,0.41465 4.16208,1.48613 5.99308,1.70698 2.07698,0.81527 3.47663,2.29039 5.82023,2.41048 2.33463,-0.005 4.19987,0.56952 6.13075,1.03971 1.72497,1.06722 3.85709,1.87063 5.89165,2.77254 1.76846,0.48449 3.37713,1.09509 4.62085,2.07941 1.08819,0.62356 2.63005,1.35114 3.64536,1.97635 0.90445,0.66025 1.85046,1.14166 2.49341,1.85806 1.21777,0.75029 2.79803,1.32106 4.25819,2.17274 1.45307,0.5061 2.5837,2.01189 3.35002,2.88796 0.89896,0.95463 1.48475,1.86911 2.07933,2.65696 0.88218,0.94089 1.64256,1.66847 2.88801,2.54145 1.09922,0.89736 1.88812,1.49646 2.70814,2.29775 0.3943,0.34139 1.50373,1.66149 2.0281,1.97635 1.1941,1.12823 2.44914,2.12786 3.00357,3.46563 0.80199,1.51922 1.86276,2.57586 2.54144,4.15876 0.55156,0.50882 1.18683,1.74909 1.61732,2.31045 1.07867,1.34192 2.05985,2.77492 2.54144,4.38978 0.60997,0.82473 0.60456,2.19519 1.27075,2.77246 0.9293,2.56419 1.93798,4.96149 1.61732,7.99451 -0.16806,2.80772 0.40742,5.14425 0.66557,7.98569 -0.005,2.27943 -0.11162,5.78643 -1.07221,7.80601 -0.45143,0.80936 -1.77049,2.71211 -1.99518,3.75424 0.0659,1.96577 -1.72749,1.76275 -2.68118,3.18608 -0.68051,1.1679 -1.22898,2.36505 -2.0794,3.35016 -0.93336,1.23293 -1.31659,2.78464 -2.48434,3.64223 -1.14043,0.7177 -1.49948,1.46652 -2.3313,2.17006 -0.70612,0.5855 -2.21028,1.47479 -2.96394,2.00339 -0.82547,0.79489 -2.24049,0.86335 -3.18283,1.5139 -1.05432,0.53191 -2.73837,0.16387 -3.82428,0.60518 -2.07781,0.41758 -3.47252,0.45131 -5.58399,0.44831 -1.53679,-0.38005 -3.82721,-0.31371 -5.15869,-1.3726 -1.20808,-0.6942 -2.52919,-1.7326 -3.58118,-2.1949 -1.04114,-0.72374 -1.35146,-1.85895 -2.65705,-2.4259 -1.02028,-0.82206 -2.69243,-1.31789 -3.2345,-2.31032 -1.17689,-0.89885 -2.05518,-2.14017 -2.77238,-2.88791 -1.00168,-1.55367 -1.49777,-3.62511 -1.84836,-5.66045 -0.55603,-1.26936 -1.4828,-1.9574 -1.96381,-3.11903 -0.48141,-1.3243 -1.03168,-2.86096 -1.61724,-3.81201 -1.9287,-1.77236 -3.16579,-4.08715 -4.73593,-5.42906 -0.4945,-0.89036 -1.21591,-1.37462 -1.73281,-1.84831 -0.83767,-0.72976 -1.66865,-1.48196 -2.19391,-2.16195 -1.30444,-1.30899 -3.17962,-2.1202 -4.85276,-3.03647 -1.48449,-1.03975 -3.53787,-2.09571 -5.42948,-2.65702 -2.002,-0.2232 -3.60151,-1.37707 -5.89111,-1.27074 -2.19516,-0.46374 -4.74847,-0.62328 -7.26346,-0.47588 -4.285,-0.30278 -7.90717,0.99743 -12.235,1.05075 -3.86957,0.34408 -8.03009,0.61509 -11.67773,-0.20849 -2.07502,-0.46084 -4.86487,-1.86969 -6.82656,-2.56131 -0.75788,-0.736 -1.50255,-1.33034 -2.24616,-1.83577 -0.44348,-0.44813 0,0 -0.54182,-2.323 -0.60754,-1.47257 -0.61233,-3.84507 -1.11736,-5.27431 -0.14035,-2.39809 -0.0792,-3.66043 0.27652,-5.86349 -0.13826,-2.11657 0.67784,-3.64447 1.21149,-5.49973 1.60325,-3.17345 1.17227,-4.71412 2.89126,-7.65119 0.75288,-0.42801 2.50586,-3.98696 3.11295,-4.5606 0.77644,-0.49651 0.84155,-2.66814 1.61127,-2.91712 1.28261,-1.02242 1.90588,-1.97763 2.65686,-2.54134 0.56854,-1.50548 1.81116,-0.61233 3.15384,-1.61916 1.80291,-1.38773 2.41882,-2.38351 4.48244,-4.36524 1.45588,-0.84549 3.25587,-2.35912 4.92948,-3.41226 0.78216,-0.56227 1.42666,-0.29386 2.48477,-0.72129 0.98897,-0.50268 2.52206,-0.15421 3.99855,-0.43677 1.51293,-1.03706 2.68479,-1.00441 4.01413,-1.39971 z"
       style="fill:#9b4a12;fill-opacity:1;fill-rule:evenodd;stroke:none;stroke-width:1px;stroke-linecap:butt;stroke-linejoin:miter;stroke-opacity:1"
       inkscape:export-xdpi="90"
       inkscape:export-ydpi="90"
       inkscape:export-filename="/home/cyb/Job/upwork/Owen Miller/ready/tanuki-logo-5_beta.png" />
    <path
       style="fill:#f9f9f9;fill-rule:evenodd;stroke:none;stroke-width:1px;stroke-linecap:butt;stroke-linejoin:miter;stroke-opacity:1"
       d="m 607.20047,648.57615 c -0.21661,0.16855 -0.53575,-0.0657 -0.12981,-0.0387 -0.39189,-0.0782 -0.67409,-0.288 -0.78315,-0.68497 -0.45562,-0.49713 -1.18637,-0.30567 -1.77773,-0.28914 -0.99618,0.13966 -1.93975,0.56527 -2.74141,1.16552 -0.39808,0.46735 -0.96011,0.75642 -1.27755,1.24399 -0.40019,0.4551 -0.66543,0.98347 -0.8177,1.57934 -0.21638,0.56518 -0.0311,1.16406 -0.0994,1.74805 -0.0143,0.39586 -0.0135,0.80581 0.13583,1.17939 -0.0936,0.69978 0.0537,1.46749 0.58929,1.96507 0.43334,0.4598 1.00249,0.75307 1.55022,1.04845 0.54866,0.24584 1.12327,0.42476 1.72584,0.47031 0.79792,0.15152 1.6162,0.0596 2.42428,0.0847 0.52936,-0.0498 1.16347,-0.16128 1.5315,-0.58546 0.34609,-0.61808 1.72871,-0.63937 1.83254,-1.34686 0.20237,-0.99088 0.50763,-2.64456 0.69927,-3.63797 0.11734,-0.58608 -0.71679,-1.099 -0.80458,-1.69601 0.11655,-0.5252 0.21464,-1.22191 -0.39845,-1.47502 -0.53521,-0.28551 -1.14556,-0.39803 -1.65898,-0.73065 z"
       id="path4215"
       inkscape:connector-curvature="0"
       sodipodi:nodetypes="cccccccccccccccccccc"
       inkscape:export-xdpi="90"
       inkscape:export-ydpi="90"
       inkscape:export-filename="/home/cyb/Job/upwork/Owen Miller/ready/tanuki-logo-5_beta.png" />
    <path
       style="fill:#f9f9f9;fill-rule:evenodd;stroke:none;stroke-width:1px;stroke-linecap:butt;stroke-linejoin:miter;stroke-opacity:1"
       d="m 546.09706,612.76884 c -0.20685,0.0657 -0.48716,0.0253 -0.12623,-0.0604 -0.68463,0.0113 -0.74723,-0.99066 -1.41387,-1.01417 -0.6605,0.0641 -1.34906,0.0116 -1.98743,0.24488 -0.80973,0.27838 -1.62215,0.65587 -2.2082,1.29532 -0.40525,0.37584 -0.96853,0.66562 -1.12654,1.2353 -0.51861,0.38114 -0.58367,1.11623 -0.7529,1.68935 -0.0278,0.62157 -0.002,1.24908 0.004,1.86785 0.16266,0.80796 -0.0418,1.74582 0.53739,2.42435 0.44062,0.53535 1.06463,0.87765 1.65673,1.21612 0.99061,0.44195 2.08845,0.60935 3.1669,0.56761 0.70441,0.0455 1.42946,0.0302 2.0947,-0.22466 0.79892,-0.42624 2.52269,-1.31017 2.73914,-2.11258 0.25183,-1.20522 0.37634,-2.26351 0.56447,-3.4831 0.1959,-0.67382 -1.1576,-1.56997 -0.98849,-2.24503 -0.055,-0.55389 -0.65691,-0.78137 -1.11516,-0.93346 -0.36571,-0.10959 -0.70666,-0.29177 -1.04421,-0.46738 z"
       id="path4217"
       inkscape:connector-curvature="0"
       sodipodi:nodetypes="cccccccccccccccccc"
       inkscape:export-xdpi="90"
       inkscape:export-ydpi="90"
       inkscape:export-filename="/home/cyb/Job/upwork/Owen Miller/ready/tanuki-logo-5_beta.png" />
    <path
       style="fill:#f9f9f9;fill-rule:evenodd;stroke:none;stroke-width:1px;stroke-linecap:butt;stroke-linejoin:miter;stroke-opacity:1"
       d="m 597.72887,670.52254 c -0.16544,0.19445 -0.6176,-0.10272 -0.1874,-0.002 0.29352,-0.1129 -0.62361,-0.0842 -0.56219,-0.44018 -0.22163,-0.59215 -0.83981,-0.67341 -1.38112,-0.59463 -0.5175,-0.0382 -0.96814,0.11029 -1.46567,0.22137 -0.5766,0.19367 -1.09133,0.47778 -1.61254,0.79523 -0.41269,0.29008 -0.73132,0.68216 -1.10204,1.01978 -0.31003,-0.0157 -0.3336,0.41983 -0.50809,0.52668 -0.0808,0.29131 -0.41042,0.36802 -0.45874,0.75855 -0.18844,0.52087 -0.44053,1.05032 -0.34644,1.61991 0.0552,0.66391 -0.1197,1.36097 0.1333,1.99875 -0.0567,0.51886 -0.0183,1.09767 0.25849,1.54931 0.32414,0.46956 0.73861,0.86605 1.25851,1.08949 0.36892,0.33729 0.8572,0.44651 1.30175,0.64627 0.49345,0.15996 1.01908,0.17172 1.52529,0.27833 0.74031,0.008 1.48243,0.005 2.22355,0.005 0.44918,-0.19185 1.04948,-0.17564 1.30545,-0.67273 0.21668,-0.44957 0.48063,-0.88612 0.59348,-1.37621 0.16362,-0.77983 0.34898,-1.55534 0.62469,-2.30394 0.21144,-0.85523 0.45252,-1.71737 0.49528,-2.60059 -0.17485,-0.54996 0.32467,-1.14483 -0.15499,-1.57858 -0.46444,-0.4387 -1.14435,-0.47796 -1.6779,-0.80383 -0.0881,-0.0444 -0.17537,-0.0902 -0.26251,-0.13669 z"
       id="path4225"
       inkscape:connector-curvature="0"
       inkscape:export-xdpi="90"
       inkscape:export-ydpi="90"
       inkscape:export-filename="/home/cyb/Job/upwork/Owen Miller/ready/tanuki-logo-5_beta.png" />
    <path
       inkscape:connector-curvature="0"
       id="path4227"
       d="m 534.43082,630.67249 c -0.16544,0.19446 -0.6176,-0.10271 -0.18739,-0.002 0.29351,-0.11291 -0.62362,-0.0842 -0.5622,-0.44019 -0.22163,-0.59214 -0.83981,-0.6734 -1.38112,-0.59463 -0.5175,-0.0381 -0.96814,0.1103 -1.46567,0.22138 -0.5766,0.19367 -1.09132,0.47777 -1.61254,0.79522 -0.41269,0.29009 -0.73132,0.68216 -1.10203,1.01979 -0.31003,-0.0157 -0.33361,0.41983 -0.50809,0.52667 -0.0808,0.29132 -0.41042,0.36803 -0.45875,0.75856 -0.18844,0.52087 -0.44053,1.05031 -0.34644,1.6199 0.0551,0.66392 -0.1197,1.36097 0.1333,1.99875 -0.0567,0.51886 -0.0183,1.09768 0.25849,1.54931 0.32414,0.46957 0.73861,0.86606 1.25851,1.0895 0.36892,0.33729 0.8572,0.44651 1.30175,0.64627 0.49345,0.15995 1.01908,0.17171 1.52529,0.27832 0.74031,0.008 1.48243,0.005 2.22355,0.005 0.44918,-0.19184 1.04948,-0.17563 1.30546,-0.67272 0.21667,-0.44957 0.48062,-0.88613 0.59348,-1.37621 0.16361,-0.77983 0.34897,-1.55535 0.62468,-2.30394 0.21144,-0.85524 0.45252,-1.71737 0.49528,-2.6006 -0.17485,-0.54996 0.32467,-1.14482 -0.15499,-1.57858 -0.46444,-0.4387 -1.14435,-0.47795 -1.6779,-0.80382 -0.0881,-0.0444 -0.17537,-0.0902 -0.26251,-0.13669 z"
       style="fill:#f9f9f9;fill-rule:evenodd;stroke:none;stroke-width:1px;stroke-linecap:butt;stroke-linejoin:miter;stroke-opacity:1"
       inkscape:export-xdpi="90"
       inkscape:export-ydpi="90"
       inkscape:export-filename="/home/cyb/Job/upwork/Owen Miller/ready/tanuki-logo-5_beta.png" />
    <path
       style="fill:#f7c89a;fill-opacity:1;fill-rule:evenodd;stroke:none;stroke-width:1px;stroke-linecap:butt;stroke-linejoin:miter;stroke-opacity:1"
       d="m 534.54632,650.30878 c -1.07625,0.55656 0.7928,-0.55513 -0.69303,0.57753 -0.3516,0.69556 -0.56541,1.81936 -1.0397,2.65702 -0.48812,1.41262 -0.85231,2.77177 -1.03971,4.27398 -0.0988,1.18581 -0.37319,2.29906 -0.46209,3.48875 -0.009,1.03345 0.0756,2.23415 -0.23104,3.03757 -0.21983,1.06954 -0.66041,2.35127 -0.57762,3.662 0.0982,1.1709 0.44272,2.4709 0.69314,3.55745 0.27352,0.90726 0.67021,1.3439 0.92418,2.2526 0.27351,0.96003 0.81147,1.73379 1.15523,2.83029 0.0159,0.89346 0.7626,1.55878 1.1552,2.07933 0.5887,0.27711 1.0544,0.83621 1.73273,1.27064 0.47374,0.31493 0.63461,0.45534 0.92418,1.03972 0.30978,0.41158 0.39087,1.60261 0.76899,1.99635 0.46295,0.3822 0.88725,1.66075 1.31042,1.81583 0.0478,0.48008 1.17664,0.57277 1.61726,0.92418 0.91404,0.0662 1.53561,0.62181 2.19488,0.92418 0.63,0.23707 1.56199,0.82302 2.3104,0.92418 0.7151,0.35854 1.677,0.6006 2.31027,0.92418 1.13449,0.20271 2.06472,0.53846 3.11887,0.80866 0.74834,0.19629 1.53096,0.30981 2.34537,0.34657 0.97772,0.17549 2.12827,0.15764 3.10706,0 1.14711,-0.0745 2.22891,-0.31919 3.33816,-0.46209 1.09094,0.0337 1.98101,-0.41749 2.99165,-0.57762 0.78606,-0.26395 1.56197,-0.74369 2.19493,-0.92418 0.60179,-0.35253 1.58707,-0.92402 2.19493,-1.27075 0.96051,-0.72588 2.26193,-1.51226 3.35002,-2.31034 1.07249,-0.73023 2.14893,-1.48276 3.23458,-2.07938 0.75578,-0.27767 1.44138,-0.82335 2.07941,-1.15523 0.54855,-0.64195 0.91843,-1.79218 1.27075,-2.88791 0.45556,-0.96731 0.78427,-1.54594 1.27075,-2.31045 0.16662,-0.89636 0.72348,-1.63107 0.57761,-2.65686 0.36256,-1.24741 -0.33632,-2.02479 -0.57761,-3.11896 -0.3587,-0.56857 -0.60434,-1.01779 -0.92419,-1.50179 -0.4537,-0.66328 -0.7028,-1.09534 -1.15522,-1.73284 -0.46152,-0.6913 -0.76002,-1.29654 -1.04716,-1.84289 -0.21351,-0.7432 -0.44825,-1.23274 -0.8012,-1.62281 -0.41434,-0.4453 -0.71596,-1.12213 -1.15523,-1.50177 -0.22956,-0.64821 -0.85952,-0.86319 -1.50174,-1.50177 -0.7714,-0.43502 -1.50275,-0.99452 -1.84831,-1.50174 -0.56572,-0.79882 -0.95004,-1.17946 -1.84823,-1.84826 -0.76045,-0.53869 -1.18304,-0.83934 -1.97399,-1.30659 -0.44354,-0.39851 -1.65421,-0.92152 -2.0693,-1.46595 -0.36094,-0.24284 -0.78289,-0.55258 -1.15523,-0.92418 -0.67117,-0.20684 -1.12034,-0.75002 -1.84836,-1.0397 -0.8484,-0.37679 -0.87571,-0.78224 -1.73284,-1.15523 -0.74002,-0.56001 -2.10918,-0.004 -3.0672,-0.29655 -1.38935,-0.04 -1.73615,-0.39179 -2.96537,-0.62934 -1.25263,-0.36272 -2.56695,-0.76083 -3.83478,-0.99938 -1.10237,-0.13017 -2.42151,-0.33354 -3.57877,-0.38518 -1.34108,0.0552 -2.7959,-0.16421 -3.99612,0.23104 -1.45618,0.0447 -2.60919,0.51526 -4.0035,0.46022 -0.7741,0.17907 -1.63347,0.65614 -2.34985,0.89556 0.71346,0.17138 -0.59191,-0.0454 -0.69358,0.0319 z"
       id="path4229"
       inkscape:connector-curvature="0"
       sodipodi:nodetypes="cccccccccccccccccccccccccccccccccccccccccccccccccccccc"
       inkscape:export-xdpi="90"
       inkscape:export-ydpi="90"
       inkscape:export-filename="/home/cyb/Job/upwork/Owen Miller/ready/tanuki-logo-5_beta.png" />
    <path
       sodipodi:nodetypes="ccccccccccccccccccccccc"
       inkscape:connector-curvature="0"
       id="path4231"
       d="m 620.46597,690.89879 c -1.10482,-5.83876 2.5446,-6.02556 4.81781,-3.81775 2.00941,1.75166 3.9451,4.80913 5.53774,6.95693 2.22538,1.97617 3.37486,4.71764 4.99983,7.16578 1.35561,2.88916 2.69286,6.98692 1.43183,10.07132 -0.32759,2.91713 -1.35428,5.31093 -2.88054,7.90726 -1.34503,3.20361 -3.74664,5.74908 -5.90237,8.41271 -1.1835,2.58055 -4.00333,3.65972 -5.76254,5.80292 -1.69295,2.27431 -4.23178,3.63606 -6.41163,5.40766 -2.4254,1.76609 -4.5875,3.75838 -7.15691,5.28357 -3.1286,2.04872 -6.19745,4.39396 -9.70641,5.72691 -2.83072,0.50548 -5.78693,0.23288 -8.60056,1.11061 -3.04786,-0.19916 -4.6308,-3.61698 -4.98239,-6.32049 -0.98861,-2.63768 -0.28337,-5.65196 0.91135,-8.05888 1.32412,-2.06699 3.15431,-4.27063 5.88833,-4.17241 2.72516,-0.46185 5.1677,-1.99538 7.92255,-2.43264 2.87489,-0.80304 5.36014,-1.4382 7.94448,-2.81671 2.74902,-1.44918 5.00307,-3.63952 7.79608,-5.00196 2.30117,-1.32589 6.11327,-5.29265 6.55166,-7.86554 1.27488,-2.84567 -2.4388,-5.45809 -1.92025,-8.43698 -0.17982,-3.66594 -0.68326,-7.35699 -0.36403,-11.02515 -0.0721,-1.16489 -1.06153,-3.00277 -0.11422,-3.89716 z"
       style="fill:#b1652b;fill-opacity:1;fill-rule:evenodd;stroke:none;stroke-width:1px;stroke-linecap:butt;stroke-linejoin:miter;stroke-opacity:1"
       inkscape:export-xdpi="90"
       inkscape:export-ydpi="90"
       inkscape:export-filename="/home/cyb/Job/upwork/Owen Miller/ready/tanuki-logo-5_beta.png" />
    <path
       inkscape:connector-curvature="0"
       id="path4235"
       d="m 445.61202,664.77108 c 1.7223,2.70611 4.08774,3.63241 6.42405,5.5972 1.84521,1.33614 2.28603,3.35373 4.4989,4.3529 2.37019,1.81776 5.13326,2.97057 7.95644,4.10838 2.37937,1.06738 4.69716,2.31048 6.98843,3.5335 2.76251,1.49305 5.69518,2.6417 8.52361,3.98144 1.85453,1.25608 5.88454,2.20379 3.36263,5.08503 -1.65809,1.61264 -4.13213,1.57578 -6.10188,2.65253 -2.27561,0.20791 -4.2499,2.15411 -6.47024,2.62308 -2.77938,-0.24182 -4.40454,-0.82131 -7.09547,-0.41295 -3.97444,1.30717 -7.45111,-0.31097 -11.38236,-1.40031 -3.07535,-0.55289 -6.37258,-2.21223 -9.08324,-3.86403 -2.34113,-1.06817 -7.77571,-4.86985 -9.82125,-6.52986 -2.84592,-1.04508 -3.15533,-5.10783 -3.11598,-7.70205 0.0646,-2.58163 4.21017,-2.20391 5.63937,-4.29519 1.64352,-1.79698 3.23066,-0.46221 -0.79821,-3.94345 -1.96625,-2.177 -3.1211,-2.93529 -4.86395,-5.26806 -1.59908,-2.16582 -0.28043,-5.4188 1.28483,-6.88526 1.74851,-1.30108 4.64086,0.22149 6.41405,1.15524 1.714,0.56121 2.2469,2.64006 3.78386,3.94633 1.53695,1.30628 2.7271,1.87343 3.85641,3.26553 z"
       style="fill:#b1652b;fill-opacity:1;fill-rule:evenodd;stroke:none;stroke-width:1px;stroke-linecap:butt;stroke-linejoin:miter;stroke-opacity:1"
       sodipodi:nodetypes="ccccccccccccccccccccc"
       inkscape:export-xdpi="90"
       inkscape:export-ydpi="90"
       inkscape:transform-center-x="21.473074"
       inkscape:transform-center-y="-16.792416"
       inkscape:export-filename="/home/cyb/Job/upwork/Owen Miller/ready/tanuki-logo-5_beta.png" />
    <path
       inkscape:connector-curvature="0"
       id="path4246"
       d="m 472.72811,773.27059 c 0.92433,0.40446 3.68515,1.54588 5.36368,2.3495 2.09651,0.58093 3.73916,1.9247 5.08175,3.54215 2.3462,1.3231 4.76245,2.5639 7.06593,3.98166 2.23759,0.39139 3.18872,2.31848 4.45722,3.9464 1.67074,1.42859 3.22771,3.0664 4.80954,4.61605 1.35519,1.48237 2.63036,3.05042 3.47668,4.87874 1.30506,1.72727 2.68412,3.54291 2.83155,5.79994 0.32749,2.41523 1.53802,6.80661 0.34813,9.07561 -1.40616,1.69199 -3.50997,2.49804 -5.3341,3.77854 -2.77992,1.80453 -6.23188,0.88514 -9.406,1.12382 -2.3398,-0.36063 -4.6835,0.0588 -7.03021,-0.0993 -2.39932,-0.20569 -4.68017,-1.06011 -6.9649,-1.81783 -2.15401,-0.4806 -4.20427,-1.25823 -5.86609,-2.73875 -1.43526,-1.06992 -2.46405,-2.5938 -3.55114,-3.99308 -1.0185,-1.84541 -1.90491,-3.76011 -2.20609,-5.86902 -1.23392,-4.37674 -1.49377,-8.95711 -1.16538,-13.47663 0.2619,-2.81475 1.33585,-5.47765 2.45407,-8.05072 0.63582,-2.06532 1.18982,-4.25272 2.70506,-5.87877 0.57876,-0.8642 2.05654,-0.67923 2.9303,-1.16821 z"
       style="fill:#9b4a12;fill-opacity:1;fill-rule:evenodd;stroke:none;stroke-width:1px;stroke-linecap:butt;stroke-linejoin:miter;stroke-opacity:1"
       sodipodi:nodetypes="ccccccccccccccccccccc"
       inkscape:export-xdpi="90"
       inkscape:export-ydpi="90"
       inkscape:export-filename="/home/cyb/Job/upwork/Owen Miller/ready/tanuki-logo-5_beta.png" />
    <path
       inkscape:connector-curvature="0"
       id="path4249"
       d="m 551.93595,789.67459 c 1.55069,-0.0575 2.69191,1.85118 4.09982,2.57688 1.2466,0.88357 1.9894,2.30596 2.73381,3.59265 0.75905,2.14028 2.00975,4.6593 0.65631,6.83131 -0.8672,2.06673 -1.20462,4.2447 -1.85738,6.36033 -0.78346,1.77625 -2.1931,3.13654 -3.5881,4.43173 -1.18147,1.46739 -2.95926,2.28387 -4.14206,3.76081 -1.67623,1.47382 -3.51722,2.97394 -5.81878,3.22496 -1.93093,0.50929 -3.82514,1.48237 -5.88225,1.12582 -2.16895,-0.26322 -4.32391,0.61771 -6.47031,-0.0455 -2.56408,-0.64656 -4.85438,-2.02747 -7.11943,-3.30096 -1.9814,-1.21553 -2.23064,-2.58859 -3.62687,-4.45901 -0.7032,-1.83953 -0.70784,-3.8761 -0.46921,-5.76586 0.55616,-1.90829 1.03217,-3.30454 2.22119,-4.92162 1.48836,-1.57134 2.55988,-3.90834 4.40327,-4.96276 1.35256,-0.79587 2.56364,-1.82664 4.00731,-2.47519 1.2157,-1.0224 2.5186,-1.93027 3.82335,-2.8446 1.30533,-1.20723 3.02031,-1.71402 4.74019,-1.98753 1.74397,-0.51275 3.52119,-0.74881 5.34036,-0.79073 1.93228,-0.3737 3.90113,-0.57375 5.85106,-0.72526 0.38894,0.0285 0.78132,0.14087 1.09796,0.37464 z"
       style="fill:#9b4a12;fill-opacity:1;fill-rule:evenodd;stroke:none;stroke-width:1px;stroke-linecap:butt;stroke-linejoin:miter;stroke-opacity:1"
       sodipodi:nodetypes="cccccccccccccccccccccc"
       inkscape:export-xdpi="90"
       inkscape:export-ydpi="90"
       inkscape:export-filename="/home/cyb/Job/upwork/Owen Miller/ready/tanuki-logo-5_beta.png" />
    <path
       style="fill:#cd7e39;fill-opacity:1;fill-rule:evenodd;stroke:none;stroke-width:1px;stroke-linecap:butt;stroke-linejoin:miter;stroke-opacity:1"
       d="m 505.77042,677.07293 c 1.66425,2.2394 8.86764,5.94979 11.21158,10.3065 4.69209,5.05043 9.95301,9.84396 16.44728,12.43054 5.20813,3.54936 11.59037,5.12373 17.10165,8.26387 6.35196,2.4905 13.17174,2.6583 19.79772,3.89882 6.49552,-1.15188 11.501,2.7812 12.33278,9.22388 2.01005,5.56993 4.02751,11.07351 4.03665,17.063 -0.36346,6.38659 -1.49315,12.76537 -3.81601,18.73919 -0.75809,5.50339 -3.29052,10.592 -7.11376,14.52979 -4.44514,5.13086 -7.49281,11.21495 -14.6526,12.61953 -6.51033,3.77897 -13.80164,6.34105 -21.3117,7.3485 -6.24736,2.86348 -12.85696,0.68714 -19.2059,-0.0492 -6.55744,-0.36975 -13.01077,-1.50118 -19.46827,-2.60553 -6.92617,-1.81619 -12.57774,-6.41982 -18.57854,-10.11253 -5.64801,-2.43353 -9.44322,-6.70827 -12.78123,-11.68694 -4.32153,-6.01037 -7.23668,-12.68211 -9.69266,-19.59375 -1.60924,-7.09099 0.0164,-14.29526 -0.28055,-21.34808 0.84437,-5.70621 4.27751,-10.13018 5.72095,-15.72903 2.73571,-5.0623 6.26527,-8.66828 9.44071,-13.3692 5.25009,-3.02694 7.24194,-8.05238 11.45541,-11.22968 5.23753,-3.06137 10.03455,-6.45089 15.99706,-8.34744 1.68285,-0.72299 3.75576,-0.49823 5.23668,0.58325"
       id="path4254"
       inkscape:connector-curvature="0"
       sodipodi:nodetypes="cccccccccccccccccccccc"
       inkscape:export-filename="/home/cyb/Job/upwork/Owen Miller/ready/tanuki-logo-5_beta.png"
       inkscape:export-xdpi="90"
       inkscape:export-ydpi="90" />
    <path
       inkscape:connector-curvature="0"
       id="path4257"
       d="m 510.80494,684.8228 c 1.43109,1.00465 2.68906,1.7269 3.88477,2.63357 1.02611,0.79936 2.03281,1.81112 3.40624,2.50329 0.8107,0.60615 1.89076,1.06568 2.65127,1.98845 0.56523,0.88516 1.03634,1.37971 1.82275,2.15416 0.47014,0.79658 1.47637,1.21968 2.48557,1.82275 1.22814,0.45048 2.27997,1.10068 3.64549,1.49134 1.25421,0.57136 2.4546,0.86712 3.31409,1.65704 1.14438,0.78678 2.37924,1.02261 3.31411,1.65707 1.30857,0.40404 1.77301,0.91851 2.81698,1.65704 1.83798,0.79175 3.55036,1.88673 5.46824,2.48557 1.14545,0.81057 2.76559,0.92154 4.14261,1.65704 1.65004,0.35459 2.86109,1.09627 4.30834,1.49134 1.83898,0.63096 3.61291,0.9791 5.13684,1.65705 2.00826,0.60375 3.5714,1.16298 5.634,1.49133 1.99404,0.0714 3.74664,0.29989 5.46824,0.82853 1.37318,0.67029 2.98325,1.10914 2.65127,3.14841 0.69677,1.44107 0.74593,4.22169 1.32564,5.79965 1.02684,1.64664 -0.37705,3.28382 -0.33141,5.46827 -0.22739,2.37242 0.73746,5.1888 0.32346,7.48396 -0.49416,2.01402 0.0471,2.91116 -0.32346,5.1454 0.22399,2.05782 -0.38246,3.93284 -0.82852,5.43249 -0.77882,2.07217 -0.9039,3.76554 -1.65705,5.79971 -0.25457,1.32007 -0.68061,2.39615 -1.49134,3.31409 -0.31834,0.95089 -1.1478,1.8453 -1.65704,2.81697 -0.60422,0.43313 -1.46703,1.18711 -2.15416,2.31986 -0.53582,0.88605 -1.09508,1.81483 -1.82275,2.31989 -1.23604,1.80168 -1.77332,1.69382 -2.81697,3.31411 -0.42119,0.916 -1.341,2.08597 -1.98845,2.48557 -0.84055,1.11766 -2.48857,1.16257 -3.31409,1.98845 -1.15112,0.37315 -1.94891,1.22289 -3.31409,1.65704 -1.35838,0.51243 -2.78085,0.84144 -3.9769,1.65705 -1.24618,0.46776 -2.51871,1.57199 -3.97693,1.98847 -1.22452,0.82808 -2.59887,1.23322 -4.14264,1.65705 -2.34918,0.052 -4.2891,1.13066 -6.84134,1.15993 -2.17007,0.0656 -4.38144,1.29683 -6.24938,0.49711 -1.99995,-0.30436 -4.31357,-0.0355 -6.17853,-0.33141 -1.98894,-0.0131 -3.88244,-0.57866 -5.58653,-0.99422 -1.6559,-0.60192 -2.89505,-0.7503 -4.63975,-1.49134 -1.63266,-0.041 -2.19357,-1.07107 -3.47979,-1.49134 -0.7767,-0.69758 -1.89157,-1.25983 -3.00589,-1.85453 -1.11508,-0.45127 -2.36662,-0.85725 -3.78802,-1.45956 -1.60947,-0.28243 -2.42383,-0.63195 -3.1484,-1.65704 -0.53272,-0.96054 -1.26399,-2.14697 -1.82204,-2.60407 -0.51379,-1.10565 -1.20565,-1.62584 -2.15487,-2.69847 -0.4449,-0.53943 -1.10264,-1.28348 -1.49134,-1.82275 -0.76668,-0.5469 -1.78351,-1.93966 -2.48557,-2.65127 -0.72765,-0.73289 -1.1606,-1.44082 -1.82275,-2.15416 -0.54592,-1.03152 -1.22955,-2.14224 -1.49134,-3.31408 -0.86238,-1.38936 -1.3029,-2.87597 -1.98845,-4.30834 -0.68885,-0.77335 -1.2832,-1.86598 -1.65705,-2.65127 -0.78361,-1.0706 -0.88525,-2.55622 -1.65705,-3.81123 -0.87866,-2.82155 -0.25185,-5.88311 -0.33141,-8.94809 -0.43949,-1.71974 -0.22451,-4.21182 -0.49711,-6.17852 -0.12219,-1.80516 0.96057,-2.7934 1.32564,-4.26091 0.60151,-0.88312 0.96669,-1.72818 1.49134,-2.48556 0.5795,-0.77601 1.28333,-1.76104 1.49134,-2.98271 0.58196,-1.39032 1.04208,-3.33672 1.49134,-4.97115 0.499,-1.09676 0.9237,-2.1017 1.65704,-2.81698 0.67735,-1.01066 1.2923,-1.6504 1.82276,-2.31986 0.58134,-0.70492 1.34778,-1.39549 1.82274,-1.98845 0.51493,-1.25878 2.22447,-2.57187 2.98269,-4.30834 1.19499,-1.08646 1.20821,-1.55109 2.31987,-2.31989 0.63869,-0.57526 1.94062,-1.0971 2.81698,-1.82274 1.62855,-0.84183 3.02558,-2.61105 4.69339,-3.86489 1.02504,-0.7837 2.18458,-1.84789 3.42613,-2.76332 0.64703,-0.82666 1.6325,-1.44314 1.98848,-2.81697 0.85662,-0.91365 1.51353,-2.05181 2.98276,-2.48559 z"
       style="fill:#facf89;fill-opacity:1;fill-rule:evenodd;stroke:none;stroke-width:1px;stroke-linecap:butt;stroke-linejoin:miter;stroke-opacity:1"
       sodipodi:nodetypes="cccccccccccccccccccccccccccccccccccccccccccccccccccccccccccccccccccc"
       inkscape:export-xdpi="90"
       inkscape:export-ydpi="90"
       inkscape:export-filename="/home/cyb/Job/upwork/Owen Miller/ready/tanuki-logo-5_beta.png" />
    <path
       sodipodi:nodetypes="cscccscc"
       inkscape:connector-curvature="0"
       id="path5561-3"
       d="m 523.92142,640.38894 c 3.79199,6.13557 11.08341,3.58467 19.97646,-6.98413 9.94094,-11.8141 11.11919,-19.29561 3.50262,-22.21834 -11.10528,-4.78375 -27.65663,20.76412 -23.47908,29.20247 z m 65.83909,39.78084 c 6.44387,10.42643 18.98174,-4.11382 23.51073,-21.50622 1.72379,-6.61965 -1.4148,-10.70743 -6.90499,-11.49425 -10.10345,-1.3039 -20.15652,25.6838 -16.60574,33.00047 z"
       style="fill:#f4eed7;stroke:none;stroke-width:1.35040283;stroke-miterlimit:4;stroke-dasharray:none"
       inkscape:export-xdpi="90"
       inkscape:export-ydpi="90"
       inkscape:export-filename="/home/cyb/Job/upwork/Owen Miller/ready/tanuki-logo-5_beta.png" />
    <path
       style="fill:#e8c09a;fill-opacity:1;fill-rule:evenodd;stroke:none;stroke-width:1px;stroke-linecap:butt;stroke-linejoin:miter;stroke-opacity:1"
       d="m 546.39443,589.04031 c -0.8164,-2.46653 -0.15565,-5.08842 -0.13893,-7.6063 1.0258,-3.22888 2.40912,-6.60771 5.16515,-8.74247 2.21535,-1.55308 4.50719,-3.31387 7.30919,-3.54196 4.06275,-0.26331 8.35153,0.5952 11.64084,3.09792 2.58881,2.48658 4.60682,5.83305 4.83393,9.47964 -0.10679,2.23779 -1.37894,4.19168 -1.97007,6.31195 -0.59153,1.70512 -1.04712,3.65096 -2.49685,4.85849 -1.16265,0.75263 -2.56909,0.05 -3.82308,-0.0677 -1.8148,-0.35589 -3.47091,-1.23055 -5.2491,-1.69213 -1.96591,-0.31768 -3.96609,0.0719 -5.93621,-0.23881 -3.0711,-0.2433 -6.19973,-0.34083 -9.23775,0.17054 -0.30922,-0.60656 0.14188,-1.39223 -0.0971,-2.02912 z"
       id="path6679"
       inkscape:connector-curvature="0"
       inkscape:export-xdpi="90"
       inkscape:export-ydpi="90"
       inkscape:export-filename="/home/cyb/Job/upwork/Owen Miller/ready/tanuki-logo-5_beta.png" />
    <path
       sodipodi:nodetypes="cccccc"
       inkscape:connector-curvature="0"
       id="path6710"
       d="m 603.13503,607.38925 c -0.29888,-9.58815 6.86105,-15.96717 13.98604,-15.64738 6.76141,-1.03808 13.08259,6.64798 13.13676,12.89141 0.58814,6.53411 -2.36625,14.02066 -8.19741,20.04071 -3.6697,-1.73598 -4.24739,-6.84025 -8.86995,-8.65181 -2.74763,-2.90675 -7.17888,-5.86108 -10.05544,-8.63293 z"
       style="fill:#e8c09a;fill-opacity:1;fill-rule:evenodd;stroke:none;stroke-width:1px;stroke-linecap:butt;stroke-linejoin:miter;stroke-opacity:1"
       inkscape:export-xdpi="90"
       inkscape:export-ydpi="90"
       inkscape:export-filename="/home/cyb/Job/upwork/Owen Miller/ready/tanuki-logo-5_beta.png" />
    <g
       id="g5652"
       transform="matrix(2.6136335,0,0,2.6136335,11.87945,-499.3669)"
       style="fill:#1a1a1a"
       inkscape:export-xdpi="90"
       inkscape:export-ydpi="90"
       inkscape:export-filename="/home/cyb/Job/upwork/Owen Miller/ready/tanuki-logo-5_beta.png">
      <g
         id="g5076"
         transform="matrix(0.93700689,-0.17135526,0.17135526,0.93700689,-43.66566,59.356836)">
        <g
           id="g5049"
           transform="matrix(0.38260911,0,0,0.38260911,-4.4132325,191.05881)">
          <path
             style="fill:#d7f4ee;fill-rule:evenodd;stroke:none;stroke-width:1px;stroke-linecap:butt;stroke-linejoin:miter;stroke-opacity:1"
             d="m 347.65096,666.26206 c 0.89088,-1.3239 2.23073,-2.01121 4.12984,-2.1192 2.61112,-0.3018 4.56381,-1.03333 6.56838,1.2919 2.07281,1.40968 0.6955,3.35213 1.1708,5.46066 -3.38378,2.53336 -2.69893,3.92854 -1.90914,6.23966 1.37309,1.66017 2.00889,0.66958 3.84394,1.69269 1.971,0.94154 4.44807,2.20499 4.79213,4.59458 0.71642,2.62955 1.76615,5.12945 2.10252,7.83445 0.0139,2.50827 -0.36606,4.51193 -0.13208,7.03831 0.52,2.90955 0.0579,7.49949 -1.33358,10.31407 -0.78079,1.735 -1.19562,3.79069 -2.12119,5.44091 0.0906,2.33284 -2.48899,3.59883 -4.26025,5.3687 -1.88901,1.57146 -7.64493,3.02031 -10.17147,1.39142 -2.2469,-1.08683 -3.61446,-2.22625 -4.90806,-4.41138 -1.28353,-1.9596 -3.07367,-3.56863 -4.06942,-5.72975 -1.35929,-1.87609 -2.07296,-4.18097 -1.93634,-6.50573 0.4045,-3.31851 -0.19334,-6.61731 -0.72631,-9.88168 -0.51173,-2.39403 -0.36517,-4.85694 1.41034,-6.67703 0.40812,-3.49709 1.36424,-4.92645 3.15677,-6.68921 0.81978,-2.30172 4.50425,-2.85869 4.67509,-5.44615 1.13937,-2.3415 -0.44506,-5.05651 -0.92922,-7.46657 -0.32016,-0.51727 1.1418,-1.64958 0.73687,-2.0993 z"
             id="path4243"
             inkscape:connector-curvature="0"
             sodipodi:nodetypes="ccccccccccccccccccccccc"
             inkscape:export-xdpi="90"
             inkscape:export-ydpi="90" />
        </g>
        <path
           sodipodi:nodetypes="ccsssssccccscsssssccssccccccccccccccccccccccccccscccccccccccc"
           inkscape:connector-curvature="0"
           id="path5561"
           d="m 130.90144,444.76511 c -1.17363,0.0205 -3.68526,0.01 -2.7104,3.45694 1.05427,1.74989 -1.35257,2.21809 -2.47138,3.75269 -1.09413,1.50074 -1.16214,4.19731 -1.04085,5.6145 0.34166,3.99213 1.3362,9.77117 6.12847,9.76027 4.69279,-0.0107 6.05054,-4.26077 6.1291,-9.16118 0.0429,-2.67356 -0.031,-6.69024 -2.32123,-7.5141 -1.27352,-0.45814 -2.2184,-0.52765 -2.2184,-1.29165 0.20766,-0.71218 0.66733,-0.49517 1.28233,-2.02514 0.16911,-1.8699 -1.36753,-2.61691 -2.77765,-2.59233 z m 0.14422,0.88478 c 1.15949,0 1.4032,0.52551 1.56855,0.80184 0.16535,0.27634 0.46166,1.01556 -0.20102,1.58947 -1.30854,1.13325 -0.79813,2.78222 0.96923,3.12963 1.14798,0.22565 1.53387,0.52613 1.94742,1.58573 1.43672,3.68118 0.38987,8.65445 -0.70469,11.05681 -0.79785,1.7511 -1.28145,2.48562 -3.7693,2.55272 -3.72809,0.10054 -4.73283,-4.59837 -4.97541,-9.62352 -0.13028,-0.76775 -0.091,-3.34255 0.75476,-4.38431 1.40083,-1.72555 3.68697,-2.19395 2.41223,-4.38431 -0.94032,-1.61573 -0.10092,-2.32406 1.99823,-2.32406 z m 0.62996,8.24852 -0.22418,0.19728 -1.37949,0 0,0.62473 1.33839,0 c 0,0.4349 0.0315,0.88158 0.0949,1.33913 0.068,0.45302 0.17268,0.89896 0.31312,1.33839 0.14496,0.4349 0.33021,0.85374 0.55672,1.25693 0.22651,0.39866 0.49817,0.76112 0.81528,1.0873 0.0408,-0.0363 0.0906,-0.0839 0.14946,-0.14274 0.0634,-0.0544 0.12716,-0.11295 0.19056,-0.17635 0.0635,-0.0589 0.12497,-0.11531 0.18383,-0.16964 0.0589,-0.0543 0.10872,-0.0997 0.14946,-0.136 -0.27181,-0.2401 -0.51638,-0.5191 -0.73383,-0.83621 -0.21745,-0.32165 -0.40345,-0.67239 -0.55748,-1.05293 -0.1495,-0.38053 -0.263,-0.78401 -0.34001,-1.20985 -0.077,-0.43037 -0.1107,-0.87411 -0.10163,-1.33166 0,-0.0136 0.007,-0.0341 0.0202,-0.0613 0.0136,-0.0271 0.0297,-0.0542 0.0478,-0.0815 0.0226,-0.0271 0.0431,-0.0521 0.0613,-0.0747 0.0226,-0.0272 0.038,-0.0477 0.0471,-0.0613 l -0.63146,-0.50964 z m -1.86895,1.42731 c -0.0634,0.32617 -0.1403,0.66155 -0.23091,1.00584 -0.0906,0.3443 -0.20411,0.68406 -0.34002,1.0193 -0.13137,0.33071 -0.28733,0.65216 -0.46854,0.96474 -0.18121,0.31258 -0.3943,0.60036 -0.63893,0.86311 0.10872,0.068 0.2149,0.15143 0.31909,0.25109 0.10873,0.0997 0.22223,0.20145 0.34001,0.30564 0.23104,-0.2854 0.43899,-0.60027 0.62473,-0.94457 0.19027,-0.3443 0.35796,-0.69942 0.50292,-1.06637 0.1495,-0.37147 0.27692,-0.74347 0.38112,-1.11495 0.1042,-0.376 0.18986,-0.73627 0.25781,-1.08057 -0.005,0 -0.0316,-0.007 -0.0814,-0.0202 -0.0453,-0.0136 -0.10388,-0.0297 -0.17636,-0.0478 -0.0725,-0.0226 -0.15232,-0.0446 -0.23839,-0.0673 -0.0861,-0.0226 -0.16954,-0.0453 -0.25108,-0.068 z"
           style="fill:#1a1a1a" />
        <path
           style="fill:#000000;fill-rule:evenodd;stroke:none;stroke-width:0.46279788px;stroke-linecap:butt;stroke-linejoin:miter;stroke-opacity:1"
           d="m 128.57644,448.86477 c 0,0 1.17929,0.93278 3.31375,0.5638 2.13446,-0.36896 2.35141,-2.01662 2.35141,-2.01662 0,0 -0.19917,-1.21756 0.43787,-3.5477 0.63704,-2.33014 2.7664,-3.87093 2.7664,-3.87093 1.9827,-2.28926 2.30734,-2.31393 2.95957,-3.50807 0.57939,-0.40024 0.63542,0.1584 0.63542,0.1584 0.29158,0.63677 -0.59955,1.13674 -0.89836,1.60351 -0.90506,1.41374 -1.12009,1.51294 -1.97436,2.27451 -0.88696,0.79072 -2.21445,1.77534 -2.54242,3.10741 -0.32796,1.33208 -0.37073,3.54638 -0.6798,4.54444 -0.30907,0.99807 -1.06714,1.91402 -2.38127,2.1799 -1.31412,0.26588 -2.59791,-0.0954 -3.92252,-0.46423 -1.32461,-0.36879 -0.92691,-0.92881 -0.0658,-1.02443 z"
           id="path5098"
           inkscape:connector-curvature="0"
           sodipodi:nodetypes="cscscccsssssccc" />
      </g>
      <g
         transform="translate(-102.78302,-3.2829957)"
         id="text5641"
         style="font-style:normal;font-variant:normal;font-weight:normal;font-stretch:normal;font-size:5px;line-height:125%;font-family:'Roboto Slab';-inkscape-font-specification:'Roboto Slab';letter-spacing:0px;word-spacing:0px;fill:#1a1a1a;fill-opacity:1;stroke:none;stroke-width:1px;stroke-linecap:butt;stroke-linejoin:miter;stroke-opacity:1" />
      <path
         sodipodi:nodetypes="sssssssssssssssscsssscscsscssssssccssscssscscssssssssscssscsccssssssccssccsscccssscccccscccssccsscssscssscsssssscccssssssssssscsssssssssssssscsccssscccsssssccsssssssscccsccsccccscscsccccssscscccsccccsccccscccccscccc"
         inkscape:connector-curvature="0"
         id="path5046"
         d="m 171.91287,457.88364 c 4.62807,0.0143 0.79235,5.51467 -0.35828,8.62538 -1.95897,5.29605 -0.58579,12.9694 1.98105,16.25864 1.5932,2.04159 1.14179,4.44698 0.46481,6.15911 -3.16022,7.99253 1.07899,15.62495 8.67746,15.62495 7.3493,0 9.85399,-4.19148 5.47086,-9.15422 -2.13985,-2.42281 -2.36681,-2.78938 1.61946,-1.45613 2.20482,0.73743 5.51764,0.91636 6.64529,0.9197 1.23109,0.004 1.0216,0.47446 -0.2591,1.97794 -2.36074,2.7714 -2.64672,5.38434 -0.56794,7.46312 4.9598,4.95981 14.74988,0.11577 14.74988,-7.29872 0,-3.61332 0.71512,-5.13232 3.17521,-6.74423 1.74592,-1.14396 4.2329,-4.86011 5.28852,-7.07379 1.32215,-2.77258 3.42899,-3.75998 7.20232,-5.32065 6.21515,-2.57062 13.23805,-9.54118 13.9458,-14.22903 0.25472,-1.68717 -0.057,-2.80902 -1.1127,-4.99634 -1.0065,-2.08523 -2.54748,-3.76585 -3.06455,-4.83965 0.40472,-1.51044 2.77353,-2.4382 3.93789,-6.22238 1.16436,-3.78418 -0.87304,-11.54655 -3.10473,-14.2634 -2.2317,-2.71684 -7.84355,-11.01591 -20.76476,-15.13622 -3.2434,-1.03426 -6.42099,-1.38418 -9.25735,-1.3765 -6.23999,0.0169 -10.82739,1.76433 -10.82739,1.76433 0,0 -7.95644,2.62006 -11.15843,10.7706 -3.20201,8.15054 2.8134,17.36834 2.71637,19.21191 -0.097,1.84358 -3.8688,2.76101 -5.89665,4.56648 -1.26864,1.12951 0.11266,1.35434 -4.85339,-1.11042 -8.79704,-4.36619 -9.12366,-6.3001 -13.18545,-9.82943 -3.22565,-1.72798 -4.40924,0.0152 -3.76525,2.26543 0.29996,1.04817 1.92049,2.19102 2.5065,3.20453 0.66729,1.15412 -2.29665,-0.16636 -2.87861,2.21426 -0.49994,2.04505 1.92649,3.83085 3.69631,5.02689 1.63361,1.10399 6.01825,2.98867 8.97685,2.99784 z m 32.30576,-40.30332 c 0.21391,-0.003 0.90037,-0.0706 1.13643,-0.0656 0.62948,0.0116 1.06373,-0.0447 1.93388,0.006 21.87744,1.27619 40.82944,25.63619 27.5306,35.3605 -0.66735,0.48798 -1.44984,0.0928 -1.94396,0.78389 -0.49412,0.69104 -0.73417,2.36534 -0.81644,2.92583 -0.39527,2.69311 -1.51629,3.59236 -6.59627,5.29077 -7.1021,2.30059 -11.18626,1.29931 -16.07257,0.21671 -21.56194,-4.77724 -35.01136,-32.19748 -14.31421,-42.32912 3.17463,-1.55404 3.77157,-1.42824 5.33075,-1.74967 1.25509,-0.25874 2.31443,-0.42194 3.81179,-0.43944 z m 0.0581,1.6378 c -0.58245,0.0128 -1.48372,0.13364 -2.0686,0.24198 -1.79248,0.33203 -2.24035,0.22298 -4.91862,1.94513 -9.35055,6.01249 -9.93604,19.48611 -1.87045,19.12896 3.19498,-0.14147 3.55439,0.10121 2.90469,4.10483 -1.39101,8.57174 8.90442,14.32659 16.05763,8.69987 3.11718,-2.45197 3.14425,-2.45197 5.36325,0 4.5301,5.0057 13.69622,0.9383 16.14058,-7.16196 2.54524,-8.43462 -6.70331,-19.24748 -18.13732,-23.79948 -1.68134,-0.66937 -7.23228,-2.41864 -9.28649,-2.89797 -1.08893,-0.25409 -2.43732,-0.29979 -4.18467,-0.26136 z m 0.45916,0.99415 c 3.90039,-0.0723 8.82885,1.6112 13.87586,3.69711 14.90269,6.22675 20.69322,19.00263 12.61339,27.83033 -4.843,5.29129 -10.87141,3.21761 -14.34036,-4.93357 -2.40771,-5.65755 -7.47782,-8.70411 -17.12849,-7.87936 -7.41416,0.63363 -7.4227,0.28003 -8.45391,-3.00408 -1.29998,-4.14001 1.04371,-8.95868 3.64711,-10.99486 2.39844,-2.62696 5.68777,-4.86043 9.7864,-4.71557 z m -5.48865,2.99101 c -1.29445,1.13959 -0.4541,2.37667 0.97009,1.26515 2.3768,-1.85498 11.08632,0.12861 10.198,-1.30874 -0.4249,-0.6875 -8.73624,-2.09734 -11.16809,0.0436 z m 4.91532,1.60531 c -3.9918,0.16323 -8.86977,8.17268 -7.468,11.00415 1.40402,2.27176 4.00684,1.23057 7.29958,-2.68263 3.68073,-4.37429 4.23868,-6.95061 1.41857,-8.03279 -0.38548,-0.16605 -0.8372,-0.30562 -1.25015,-0.28873 z m -0.46061,0.91743 c 0.80903,0 1.47065,0.66163 1.47066,1.47066 0,0.80903 -0.66163,1.4714 -1.47066,1.4714 -0.80902,0 -1.4714,-0.66237 -1.4714,-1.4714 0,-0.80903 0.66238,-1.47066 1.4714,-1.47066 z m 22.62102,7.59166 c -0.27196,0.0105 -0.53705,0.0596 -0.79138,0.15394 -1.03206,0.38302 -1.63849,1.34422 0.41175,1.0447 1.72512,-0.25202 3.63371,0.99705 4.45531,1.98702 0.82161,0.98998 1.79428,1.79872 2.1604,1.79872 0.36613,0 -0.35334,-1.12541 -1.59769,-2.50041 -1.01106,-1.11719 -2.77013,-2.39987 -4.36414,-2.48173 -0.092,-0.005 -0.1836,-0.006 -0.27425,-0.002 z m -27.19589,0.89674 c 0.41781,10e-4 0.75636,0.33993 0.75625,0.75774 1.1e-4,0.41781 -0.33844,0.75678 -0.75625,0.75775 -0.41858,1.1e-4 -0.75785,-0.33917 -0.75775,-0.75775 -1e-4,-0.41858 0.33917,-0.75785 0.75775,-0.75774 z m 26.84973,4.50336 c -2.67452,0.98084 -6.5009,9.5273 -4.89632,12.12357 2.42022,3.10578 6.89099,-1.59195 8.56789,-8.03166 0.63825,-2.45099 -0.52366,-3.96446 -2.55646,-4.25578 -0.41926,0.0337 -0.7228,0.02 -1.11511,0.16387 z m 0.95669,0.83448 c 0.87847,0 1.59694,0.71846 1.59694,1.59695 0,0.87847 -0.71847,1.59694 -1.59694,1.59694 -0.87848,0 -1.5977,-0.71847 -1.5977,-1.59694 0,-0.87849 0.71922,-1.59695 1.5977,-1.59695 z m -22.43719,0.11135 c 1.85914,10e-5 4.14347,0.76811 6.66577,2.30611 5.4076,3.29732 6.57383,7.3792 2.94579,10.317 -7.85165,6.35789 -18.40576,-1.57439 -13.72685,-10.317 0.82301,-1.53781 2.25614,-2.30623 4.11529,-2.30611 z m 4.89844,4.01739 c -1.85638,0 -2.41652,0.5671 -1.8966,1.92201 0.9629,2.50928 -3.32981,4.24657 -4.32602,1.69709 -0.88162,-2.25619 -1.30314,-2.46325 -0.99838,-0.65014 0.12858,0.76486 1.12168,2.6103 2.66855,3.68934 1.54688,1.07905 4.47046,1.84717 5.44322,1.50204 2.10301,-0.74611 -0.0505,-0.28399 -1.51774,-0.66434 -2.78902,-0.72298 -1.64246,-3.26164 1.20313,-2.75374 1.35901,0.24257 2.05877,-0.50083 2.05877,-2.18804 0,-1.7647 -0.81568,-2.55422 -2.63493,-2.55422 z m 14.16401,5.89458 c 0.41859,-1.2e-4 0.75786,0.33916 0.75775,0.75774 1.1e-4,0.41857 -0.33918,0.75785 -0.75775,0.75774 -0.41857,1.1e-4 -0.75785,-0.33916 -0.75774,-0.75774 -1.1e-4,-0.41858 0.33917,-0.75786 0.75774,-0.75774 z m -36.64453,2.05054 c 2.00073,-0.0502 1.08449,2.46186 -2.70741,6.65904 -5.6743,6.28072 -7.29116,13.52525 -5.1443,18.70824 8.06024,19.45914 37.50839,14.20384 36.01607,-6.42738 -0.46865,-6.47891 -0.31433,-7.12282 1.31821,-5.4903 6.15386,6.15387 2.22464,21.85628 -6.45503,25.79698 -27.67247,12.56373 -51.63279,-17.32193 -28.90642,-36.05493 2.63772,-2.17423 4.67843,-3.16153 5.87888,-3.19165 z m 46.42332,2.12512 c 1.94271,-0.53359 5.74827,5.93055 5.74827,9.10954 0,3.71455 -5.50061,10.00818 -11.35721,12.996 -6.21235,3.16931 -7.39213,3.08343 -7.39213,-0.54327 0,-2.09089 0.87826,-3.21154 2.92188,-3.72446 5.61651,-1.40965 11.78677,-5.73988 10.94152,-8.17381 -0.67706,-1.94961 -1.23632,-3.95444 0.37195,-2.60161 1.12578,0.94697 0.86483,0.0715 -0.76228,-1.10597 -1.25967,-0.9116 -0.97027,-3.36084 0.34077,-2.23736 1.71028,1.4656 1.18705,0.42232 0.67972,-0.12746 -1.36839,-1.48292 -2.19904,-3.39754 -1.49249,-3.5916 z m -54.81683,0.77054 c 0.78796,0.72674 0.63487,1.61538 -3.39558,2.42742 -7.10846,1.43224 -19.11759,-6.58834 -13.32844,-7.76873 2.00619,-0.1286 2.32316,-1.71578 0.49397,-3.26883 -1.47911,-1.25579 -2.45496,-2.15132 -1.74608,-2.98626 0.82661,-0.97359 2.36743,-0.35742 4.76656,2.60076 2.0576,2.53702 6.30171,5.65043 9.35367,7.03031 2.08089,0.94083 3.38312,1.52929 3.8559,1.96533 z m 12.90112,0.92819 0,7.6e-4 c 0.67798,0.0513 1.75206,0.61552 3.19165,1.7479 1.97602,1.55433 6.45892,3.76064 9.96054,4.90218 6.3666,2.07548 6.36678,2.07532 2.37711,4.13846 -6.10814,3.15864 -10.55204,1.5876 -14.46666,-5.11516 -2.02815,-3.47265 -2.40313,-5.48474 -1.32792,-5.66366 0.0806,-0.0134 0.16842,-0.0176 0.26528,-0.0105 z m -2.95102,1.03424 c 0.6079,0.0315 0.98871,0.94869 1.79273,2.88974 0.83854,2.02445 4.44664,6.78517 6.28989,8.13119 2.69025,1.96454 1.86353,3.07818 1.48111,4.45307 -1.01208,3.63867 -0.30359,2.36397 0.94382,0.22493 0.83549,-1.4327 0.9113,-0.743 1.17548,1.4729 0.2453,2.0576 0.62889,1.94013 0.75177,-0.44315 0.0797,-1.54686 0.19197,-3.09654 1.75686,-3.66094 0.9001,-0.32463 3.07901,-1.3608 5.52915,-3.0235 5.1678,-3.50697 5.89457,-2.74842 5.89457,6.15462 0,6.7694 -4.39709,12.48727 -11.01794,14.32617 -19.21795,5.33762 -31.56861,-15.12032 -17.24955,-28.57238 1.27724,-1.1999 1.99551,-1.876 2.52731,-1.94742 0.0427,-0.006 0.0843,-0.007 0.1248,-0.005 z m 43.48293,4.1818 c 0.56434,0.18829 0.8432,1.15746 0.99083,1.24173 0.9184,1.81994 0.52997,2.37968 -0.0844,3.384 -1.25106,2.13046 -7.18367,5.34105 -10.39091,5.42448 -1.95481,0.0508 -5.50095,-5.20649 0.12404,-7.08574 3.31653,-0.75349 6.7799,-1.92173 8.07748,-2.53236 0.57587,-0.27099 0.962,-0.41794 1.283,-0.43211 z m -37.96947,23.25994 c -0.1159,0.20737 -0.11741,0.40742 -0.074,0.63445 0.0535,0.18953 0.15543,0.36973 0.31087,0.49469 0.21865,0.17489 0.52417,0.22547 0.76148,0.25271 0.24058,0.033 0.45566,0.0281 0.65238,-0.0905 0.4241,-0.25564 0.45787,-0.43438 0.48199,-0.79362 -0.0449,-0.24431 -0.13143,-0.38737 -0.32776,-0.52027 -0.21654,-0.12942 -0.39821,-0.24428 -0.60726,-0.32669 -0.49853,-0.15825 -0.9378,-0.0978 -1.19772,0.34927 z m -17.25777,4.68846 c 4.10276,-0.11252 12.97121,7.43813 12.12916,11.87732 -0.30058,1.58465 -1.84206,2.28951 -5.5994,2.56393 -7.40414,0.54075 -10.70141,-4.54481 -8.4301,-13.00572 0.26156,-0.97437 0.95354,-1.40957 1.90034,-1.43553 z m 27.85574,5.27806 c 6.23195,0.0672 5.4052,5.42047 2.24633,8.74919 -1.58717,1.58716 -6.43699,4.16342 -10.6585,1.07833 -3.68751,-2.69484 0.74248,-8.55553 7.78669,-9.81781 0.21588,-0.009 0.42445,-0.0119 0.62548,-0.01 z m -23.80994,1.0589 c -0.92887,0.007 -2.4092,0.68852 -3.0691,1.15978 -0.67627,0.48296 -0.81054,1.01725 0.68452,0.16291 0.47191,-0.26967 1.95801,-0.81095 3.58696,-0.41773 3.14931,0.76024 3.54174,-0.14442 0.71813,-0.71889 -0.45877,-0.0934 -0.99163,-0.19377 -1.92051,-0.18607 z m 20.67733,2.31957 c -0.34909,-0.005 -0.70123,0.0218 -1.03947,0.0956 -2.65408,0.57956 -1.25937,1.01369 1.04993,0.74579 1.79271,-0.20798 3.42533,0.74081 3.63777,0.80931 0.21246,0.0685 -0.0816,-0.70656 -1.01779,-1.09328 -0.56024,-0.23142 -1.58319,-0.54138 -2.63044,-0.55747 z"
         style="fill:#1a1a1a" />
    </g>
    <path
       style="color:#000000;font-style:normal;font-variant:normal;font-weight:normal;font-stretch:normal;font-size:medium;line-height:normal;font-family:sans-serif;text-indent:0;text-align:start;text-decoration:none;text-decoration-line:none;text-decoration-style:solid;text-decoration-color:#000000;letter-spacing:normal;word-spacing:normal;text-transform:none;direction:ltr;block-progression:tb;writing-mode:lr-tb;baseline-shift:baseline;text-anchor:start;white-space:normal;clip-rule:nonzero;display:inline;overflow:visible;visibility:visible;opacity:1;isolation:auto;mix-blend-mode:normal;color-interpolation:sRGB;color-interpolation-filters:linearRGB;solid-color:#000000;solid-opacity:1;fill:#1a1a1a;fill-opacity:1;fill-rule:evenodd;stroke:none;stroke-width:2.4000001;stroke-linecap:butt;stroke-linejoin:miter;stroke-miterlimit:4;stroke-dasharray:none;stroke-dashoffset:0;stroke-opacity:1;color-rendering:auto;image-rendering:auto;shape-rendering:auto;text-rendering:auto;enable-background:accumulate"
       d="m 564.37111,556.56391 c -7.49349,-0.8292 -15.41964,2.14836 -20.11963,8.12401 -4.73264,6.32455 -6.63538,14.50155 -6.01659,22.31128 0.48976,1.29218 -0.31896,4.57664 1.23053,4.66995 0.99766,-0.14185 1.99531,-0.2837 2.99297,-0.42555 -2.11096,-6.65837 -2.22267,-14.18651 0.95192,-20.53649 1.61714,-3.90737 4.51438,-7.28337 8.29082,-9.23317 5.78129,-3.46169 12.99001,-3.04737 19.26146,-1.32454 3.83797,1.18702 7.10906,3.80275 9.41433,7.05404 3.77489,4.44162 3.27186,10.9008 1.4951,16.07975 -1.3158,3.9033 -3.44198,7.5336 -6.21676,10.579 1.1084,0.40318 2.21681,0.80635 3.32521,1.20953 4.08206,-5.88637 6.63943,-12.98863 6.61721,-20.19004 -0.15253,-3.60384 -1.35606,-7.31848 -4.00002,-9.87051 -0.94419,-1.50836 -2.75592,-3.2324 -4.40197,-4.39524 -3.73416,-2.6833 -8.30846,-3.7261 -12.82458,-4.05202 z"
       id="path6671"
       inkscape:connector-curvature="0"
       inkscape:export-xdpi="90"
       inkscape:export-ydpi="90"
       inkscape:export-filename="/home/cyb/Job/upwork/Owen Miller/ready/tanuki-logo-5_beta.png" />
    <path
       inkscape:connector-curvature="0"
       id="path6677"
       d="m 562.40911,568.41623 c -4.77117,-0.62531 -9.86729,1.17303 -12.94318,4.92596 -3.10121,3.97512 -4.42034,9.16868 -4.12572,14.16025 0.29596,0.83086 -0.26228,2.91639 0.72532,2.99581 0.63845,-0.0777 1.2769,-0.15544 1.91534,-0.23314 -1.26159,-4.276 -1.23626,-9.08135 0.87103,-13.09271 1.08209,-2.47265 2.97423,-4.58979 5.40912,-5.78553 3.73363,-2.13483 8.32841,-1.77792 12.30829,-0.59804 2.43388,0.80674 4.48769,2.51789 5.91702,4.62222 2.35186,2.88277 1.94797,6.9981 0.7477,10.28013 -0.88974,2.47392 -2.29311,4.76324 -4.10287,6.67098 0.70213,0.27151 1.40425,0.54301 2.10638,0.81452 2.68043,-3.70388 4.40351,-8.20321 4.48177,-12.79892 -0.0511,-2.30167 -0.77142,-4.68753 -2.42585,-6.35 -0.58317,-0.97465 -1.71715,-2.09807 -2.75263,-2.86123 -2.34843,-1.76021 -5.25404,-2.48436 -8.13172,-2.7503 z"
       style="color:#000000;font-style:normal;font-variant:normal;font-weight:normal;font-stretch:normal;font-size:medium;line-height:normal;font-family:sans-serif;text-indent:0;text-align:start;text-decoration:none;text-decoration-line:none;text-decoration-style:solid;text-decoration-color:#000000;letter-spacing:normal;word-spacing:normal;text-transform:none;direction:ltr;block-progression:tb;writing-mode:lr-tb;baseline-shift:baseline;text-anchor:start;white-space:normal;clip-rule:nonzero;display:inline;overflow:visible;visibility:visible;opacity:1;isolation:auto;mix-blend-mode:normal;color-interpolation:sRGB;color-interpolation-filters:linearRGB;solid-color:#000000;solid-opacity:1;fill:#1a1a1a;fill-opacity:1;fill-rule:evenodd;stroke:none;stroke-width:2.4000001;stroke-linecap:butt;stroke-linejoin:miter;stroke-miterlimit:4;stroke-dasharray:none;stroke-dashoffset:0;stroke-opacity:1;color-rendering:auto;image-rendering:auto;shape-rendering:auto;text-rendering:auto;enable-background:accumulate"
       inkscape:export-xdpi="90"
       inkscape:export-ydpi="90"
       inkscape:export-filename="/home/cyb/Job/upwork/Owen Miller/ready/tanuki-logo-5_beta.png" />
    <path
       style="color:#000000;font-style:normal;font-variant:normal;font-weight:normal;font-stretch:normal;font-size:medium;line-height:normal;font-family:sans-serif;text-indent:0;text-align:start;text-decoration:none;text-decoration-line:none;text-decoration-style:solid;text-decoration-color:#000000;letter-spacing:normal;word-spacing:normal;text-transform:none;direction:ltr;block-progression:tb;writing-mode:lr-tb;baseline-shift:baseline;text-anchor:start;white-space:normal;clip-rule:nonzero;display:inline;overflow:visible;visibility:visible;opacity:1;isolation:auto;mix-blend-mode:normal;color-interpolation:sRGB;color-interpolation-filters:linearRGB;solid-color:#000000;solid-opacity:1;fill:#1a1a1a;fill-opacity:1;fill-rule:evenodd;stroke:none;stroke-width:2.4000001;stroke-linecap:butt;stroke-linejoin:miter;stroke-miterlimit:4;stroke-dasharray:none;stroke-dashoffset:0;stroke-opacity:1;color-rendering:auto;image-rendering:auto;shape-rendering:auto;text-rendering:auto;enable-background:accumulate"
       d="m 622.9883,580.35493 c -8.8454,-0.73712 -15.051,1.59405 -20.53321,7.87695 -2.20735,2.52973 -3.36064,6.60177 -4.11328,10.10351 -0.75264,3.50175 -1.01953,6.44727 -1.01953,6.44727 l 3.46656,1.56172 c -0.47938,-5.51868 0.18197,-11.85622 3.92316,-16.35506 5.11061,-5.85702 9.70743,-7.94124 18.07708,-7.24377 4.01658,0.33472 6.84112,1.98808 9.07617,4.24219 2.199,2.21775 3.77357,5.04004 5.07226,7.68164 3.7799,16.29299 -3.83651,24.80289 -11.61005,33.71453 l 2.43623,2.38508 c 7.8817,-9.03566 15.53789,-19.54804 11.49218,-36.76953 l -0.0312,-0.13282 -0.0605,-0.12109 c -1.34809,-2.75513 -3.04589,-5.87766 -5.59375,-8.44727 -2.54787,-2.5696 -5.9911,-4.56077 -10.58203,-4.94335 z"
       id="path6704"
       inkscape:connector-curvature="0"
       sodipodi:nodetypes="csscccssccccccscc"
       inkscape:export-xdpi="90"
       inkscape:export-ydpi="90"
       inkscape:export-filename="/home/cyb/Job/upwork/Owen Miller/ready/tanuki-logo-5_beta.png" />
    <path
       sodipodi:nodetypes="csscccssccccccscc"
       inkscape:connector-curvature="0"
       id="path6708"
       d="m 619.00169,590.80154 c -5.89555,-0.49129 -10.03165,1.06246 -13.6856,5.25007 -1.47121,1.68609 -2.23989,4.40014 -2.74153,6.73409 -0.50164,2.33395 -0.67953,4.29716 -0.67953,4.29716 l 2.31049,1.04091 c -0.3195,-3.67826 0.12129,-7.90229 2.61483,-10.90081 3.40627,-3.90376 6.4701,-5.29292 12.04855,-4.82804 2.67709,0.22309 4.55967,1.32507 6.04936,2.82746 1.46565,1.47815 2.51512,3.35924 3.3807,5.11989 2.51935,10.85943 -2.55706,16.53136 -7.7382,22.47106 l 1.62376,1.58968 c 5.25324,-6.02236 10.35617,-13.02896 7.65966,-24.50725 l -0.0208,-0.0885 -0.0403,-0.0807 c -0.89852,-1.83632 -2.03012,-3.91752 -3.72829,-5.63019 -1.69818,-1.71267 -3.99313,-3.0398 -7.05303,-3.29479 z"
       style="color:#000000;font-style:normal;font-variant:normal;font-weight:normal;font-stretch:normal;font-size:medium;line-height:normal;font-family:sans-serif;text-indent:0;text-align:start;text-decoration:none;text-decoration-line:none;text-decoration-style:solid;text-decoration-color:#000000;letter-spacing:normal;word-spacing:normal;text-transform:none;direction:ltr;block-progression:tb;writing-mode:lr-tb;baseline-shift:baseline;text-anchor:start;white-space:normal;clip-rule:nonzero;display:inline;overflow:visible;visibility:visible;opacity:1;isolation:auto;mix-blend-mode:normal;color-interpolation:sRGB;color-interpolation-filters:linearRGB;solid-color:#000000;solid-opacity:1;fill:#1a1a1a;fill-opacity:1;fill-rule:evenodd;stroke:none;stroke-width:2.4000001;stroke-linecap:butt;stroke-linejoin:miter;stroke-miterlimit:4;stroke-dasharray:none;stroke-dashoffset:0;stroke-opacity:1;color-rendering:auto;image-rendering:auto;shape-rendering:auto;text-rendering:auto;enable-background:accumulate"
       inkscape:export-xdpi="90"
       inkscape:export-ydpi="90"
       inkscape:export-filename="/home/cyb/Job/upwork/Owen Miller/ready/tanuki-logo-5_beta.png" />
    <path
       style="fill:#000000;fill-rule:evenodd;stroke:none;stroke-width:1px;stroke-linecap:butt;stroke-linejoin:miter;stroke-opacity:1"
       d="m 547.73543,527.20531 c 6.40669,2.49305 8.33008,24.76411 8.15604,29.86956 3.60291,1.91076 3.15456,0.09 3.15456,0.09 0,0 -1.91433,-26.86885 -3.74002,-30.00239 -1.71759,-2.94799 -7.57058,0.0429 -7.57058,0.0429 z"
       id="path5100"
       inkscape:connector-curvature="0"
       sodipodi:nodetypes="cccsc"
       inkscape:export-filename="/home/cyb/Job/upwork/Owen Miller/ready/tanuki-logo-5_beta.png"
       inkscape:export-xdpi="90"
       inkscape:export-ydpi="90" />
    <path
       style="fill:#000000;fill-rule:evenodd;stroke:none;stroke-width:1px;stroke-linecap:butt;stroke-linejoin:miter;stroke-opacity:1"
       d="m 526.20883,593.80175 c 0,0 -14.29249,-40.71786 -29.55166,-46.15617 -1.47365,-0.52521 -3.22782,3.40714 -3.22782,3.40714 0,0 12.51982,-0.94317 30.08964,42.92836 1.03991,2.59663 2.68984,-0.17933 2.68984,-0.17933 z"
       id="path5102"
       inkscape:connector-curvature="0"
       sodipodi:nodetypes="cscsc"
       inkscape:export-filename="/home/cyb/Job/upwork/Owen Miller/ready/tanuki-logo-5_beta.png"
       inkscape:export-xdpi="90"
       inkscape:export-ydpi="90" />
    <path
       style="fill:#000000;fill-rule:evenodd;stroke:none;stroke-width:1px;stroke-linecap:butt;stroke-linejoin:miter;stroke-opacity:1"
       d="m 464.97824,590.04678 c 0,0 21.62825,5.67858 38.80103,19.27371 1.5216,1.2046 -1.1956,1.13934 -1.1956,1.13934 0,0 -19.50976,-13.4139 -38.11263,-16.73583 -3.55042,-0.634 0.5072,-3.67722 0.5072,-3.67722 z"
       id="path5104"
       inkscape:connector-curvature="0"
       sodipodi:nodetypes="cscsc"
       inkscape:export-filename="/home/cyb/Job/upwork/Owen Miller/ready/tanuki-logo-5_beta.png"
       inkscape:export-xdpi="90"
       inkscape:export-ydpi="90" />
    <path
       sodipodi:nodetypes="cscsc"
       inkscape:connector-curvature="0"
       id="path5106"
       d="m 457.10997,634.03657 c 0,0 18.60669,-5.78189 37.57279,-3.65648 1.68049,0.18833 -0.35805,1.39379 -0.35805,1.39379 0,0 -20.60987,-0.91317 -35.89298,5.21474 -2.91683,1.16953 -1.32176,-2.95205 -1.32176,-2.95205 z"
       style="fill:#000000;fill-rule:evenodd;stroke:none;stroke-width:1px;stroke-linecap:butt;stroke-linejoin:miter;stroke-opacity:1"
       inkscape:export-filename="/home/cyb/Job/upwork/Owen Miller/ready/tanuki-logo-5_beta.png"
       inkscape:export-xdpi="90"
       inkscape:export-ydpi="90" />
    <path
       style="fill:#000000;fill-rule:evenodd;stroke:none;stroke-width:1px;stroke-linecap:butt;stroke-linejoin:miter;stroke-opacity:1"
       d="m 468.91484,665.04848 c 0,0 12.23979,-9.18348 26.98435,-12.80896 1.30644,-0.32123 0.12726,1.09402 0.12726,1.09402 0,0 -15.62744,4.93848 -25.29089,13.46773 -1.84431,1.62783 -1.82072,-1.75279 -1.82072,-1.75279 z"
       id="path5108"
       inkscape:connector-curvature="0"
       sodipodi:nodetypes="cscsc"
       inkscape:export-filename="/home/cyb/Job/upwork/Owen Miller/ready/tanuki-logo-5_beta.png"
       inkscape:export-xdpi="90"
       inkscape:export-ydpi="90" />
    <path
       sodipodi:nodetypes="cscsc"
       inkscape:connector-curvature="0"
       id="path5110"
       d="m 590.01496,599.98376 c 0,0 30.40759,-42.18113 27.10067,-59.36199 -0.29569,-1.53625 -4.67097,-0.45758 -4.67097,-0.45758 0,0 1.55036,17.11038 -24.22203,57.80586 -1.49655,2.36311 1.79233,2.01371 1.79233,2.01371 z"
       style="fill:#000000;fill-rule:evenodd;stroke:none;stroke-width:1px;stroke-linecap:butt;stroke-linejoin:miter;stroke-opacity:1"
       inkscape:export-filename="/home/cyb/Job/upwork/Owen Miller/ready/tanuki-logo-5_beta.png"
       inkscape:export-xdpi="90"
       inkscape:export-ydpi="90" />
    <path
       sodipodi:nodetypes="cscsc"
       inkscape:connector-curvature="0"
       id="path5112"
       d="m 629.14181,632.79517 c 0,0 28.41367,-32.47897 44.60078,-31.85065 1.56328,0.0607 1.01671,3.55673 1.01671,3.55673 0,0 -12.14807,-3.68178 -44.77701,30.50538 -1.93121,2.02343 -0.84048,-2.21146 -0.84048,-2.21146 z"
       style="fill:#000000;fill-rule:evenodd;stroke:none;stroke-width:1px;stroke-linecap:butt;stroke-linejoin:miter;stroke-opacity:1"
       inkscape:export-filename="/home/cyb/Job/upwork/Owen Miller/ready/tanuki-logo-5_beta.png"
       inkscape:export-xdpi="90"
       inkscape:export-ydpi="90" />
    <path
       sodipodi:nodetypes="cscsc"
       inkscape:connector-curvature="0"
       id="path5114"
       d="m 678.69092,647.25803 c 0,0 -21.1317,-2.76549 -41.17768,3.05856 -1.77618,0.51604 0.64556,1.43555 0.64556,1.43555 0,0 22.0435,-4.82371 39.65744,-1.0661 3.36169,0.71714 0.87468,-3.42801 0.87468,-3.42801 z"
       style="fill:#000000;fill-rule:evenodd;stroke:none;stroke-width:1px;stroke-linecap:butt;stroke-linejoin:miter;stroke-opacity:1"
       inkscape:export-filename="/home/cyb/Job/upwork/Owen Miller/ready/tanuki-logo-5_beta.png"
       inkscape:export-xdpi="90"
       inkscape:export-ydpi="90" />
    <path
       sodipodi:nodetypes="cscsc"
       inkscape:connector-curvature="0"
       id="path5116"
       d="m 659.82721,685.14627 c 0,0 -9.58982,-9.29945 -21.84859,-13.87377 -1.08617,-0.40532 -0.21266,0.96339 -0.21266,0.96339 0,0 12.8887,5.82491 20.33852,14.3066 1.42181,1.61875 1.72277,-1.39621 1.72277,-1.39621 z"
       style="fill:#000000;fill-rule:evenodd;stroke:none;stroke-width:1px;stroke-linecap:butt;stroke-linejoin:miter;stroke-opacity:1"
       inkscape:export-filename="/home/cyb/Job/upwork/Owen Miller/ready/tanuki-logo-5_beta.png"
       inkscape:export-xdpi="90"
       inkscape:export-ydpi="90" />
    <path
       style="fill:#000000;fill-rule:evenodd;stroke:none;stroke-width:1px;stroke-linecap:butt;stroke-linejoin:miter;stroke-opacity:1"
       d="m 609.43747,715.0854 c 0,0 -1.64056,-3.81699 -5.02019,-7.08939 -0.29945,-0.28995 -1.24632,0.7491 -1.24632,0.7491 0,0 3.18289,2.77476 4.41558,6.64179 0.23525,0.73804 2.03023,-0.30149 2.03023,-0.30149 z"
       id="path5118"
       inkscape:connector-curvature="0"
       sodipodi:nodetypes="cscscc"
       inkscape:export-filename="/home/cyb/Job/upwork/Owen Miller/ready/tanuki-logo-5_beta.png"
       inkscape:export-xdpi="90"
       inkscape:export-ydpi="90" />
  </g>
</svg>
